<?xml version="1.0" standalone="no"?>
<!DOCTYPE svg PUBLIC "-//W3C//DTD SVG 20010904//EN"
 "http://www.w3.org/TR/2001/REC-SVG-20010904/DTD/svg10.dtd">
<svg version="1.0" xmlns="http://www.w3.org/2000/svg"
 width="3264.000000pt" height="4928.000000pt" viewBox="0 0 3264.000000 4928.000000"
 preserveAspectRatio="xMidYMid meet">

<g transform="translate(0.000000,4928.000000) scale(0.100000,-0.100000)"
fill="#000000" stroke="none">
<path d="M16486 39932 c-3 -5 21 -25 52 -46 58 -37 109 -92 98 -103 -3 -3 -15
2 -26 12 -11 10 -20 16 -20 13 0 -9 -122 32 -158 52 -54 32 -69 24 -28 -13 37
-34 63 -92 45 -102 -5 -4 -13 5 -18 18 -14 36 -78 70 -136 73 -27 1 -54 -1
-60 -6 -13 -11 -67 -12 -213 -4 -105 6 -115 5 -135 -14 -12 -11 -56 -33 -97
-48 -71 -25 -89 -38 -205 -142 -11 -10 -37 -37 -57 -60 -25 -29 -45 -42 -62
-42 -14 0 -26 -4 -26 -9 0 -5 -10 -11 -22 -14 -17 -5 -19 -9 -9 -20 6 -8 11
-28 10 -43 -1 -16 6 -49 15 -73 18 -49 22 -116 6 -106 -5 3 -10 15 -10 26 0
11 -5 17 -10 14 -7 -4 -6 -14 2 -28 6 -12 12 -49 12 -82 1 -57 -1 -63 -49
-123 -74 -95 -91 -123 -99 -165 -4 -23 -14 -40 -24 -43 -9 -3 -27 -10 -39 -16
-30 -15 -107 -1 -128 22 -20 22 -45 27 -45 9 0 -8 -4 -9 -13 0 -19 15 -79 21
-94 9 -21 -17 -15 -63 17 -123 36 -68 38 -90 10 -82 -32 8 -69 -15 -85 -55 -8
-21 -19 -38 -25 -38 -20 0 -86 -55 -100 -84 -8 -17 -42 -50 -75 -72 -34 -24
-65 -55 -72 -71 -6 -16 -19 -35 -27 -42 -20 -17 -21 -40 -1 -47 22 -9 18 -41
-16 -122 -31 -75 -63 -130 -111 -192 -35 -47 -44 -102 -24 -159 23 -68 7 -128
-51 -187 -51 -53 -83 -101 -83 -125 0 -9 -11 -33 -25 -53 -14 -20 -25 -47 -25
-59 0 -13 -7 -32 -15 -44 -16 -23 -55 -166 -60 -218 -2 -16 -13 -59 -25 -94
-12 -36 -19 -73 -17 -82 3 -10 -3 -60 -13 -111 -10 -51 -20 -154 -23 -228 -4
-102 -10 -149 -26 -195 -12 -32 -21 -66 -21 -75 0 -8 -7 -28 -15 -44 -8 -15
-15 -37 -15 -47 0 -10 -4 -21 -10 -24 -17 -11 -12 -35 6 -28 15 5 16 1 10 -31
-11 -56 -29 -540 -26 -697 0 -36 -4 -78 -9 -92 -9 -23 -16 -27 -53 -27 -37 0
-40 -1 -23 -13 10 -8 15 -18 12 -24 -3 -5 7 -20 24 -33 16 -14 29 -33 29 -42
0 -10 5 -18 10 -18 6 0 10 -7 10 -15 0 -8 4 -15 9 -15 5 0 15 -16 21 -36 7
-19 20 -40 31 -47 10 -6 19 -19 19 -28 0 -10 7 -16 17 -15 10 0 19 -8 21 -19
8 -36 36 -64 55 -54 29 17 57 -7 57 -47 0 -19 7 -51 15 -71 8 -19 15 -46 15
-59 0 -12 7 -30 16 -38 15 -16 36 -108 34 -151 -5 -138 -18 -191 -34 -149 -5
14 -11 13 -43 -7 -60 -35 -73 -54 -73 -99 0 -45 -51 -136 -81 -145 -9 -3 -19
-13 -21 -23 -3 -10 -16 -18 -32 -20 -42 -3 -108 -52 -119 -87 -32 -109 -38
-134 -43 -171 -5 -39 -3 -44 46 -93 28 -28 60 -51 70 -51 12 0 20 -7 20 -16 0
-14 13 -15 99 -10 54 3 101 3 104 -1 12 -11 -13 -42 -29 -36 -13 5 -15 2 -10
-14 4 -14 1 -23 -9 -27 -14 -5 -15 -8 -2 -27 8 -11 31 -29 51 -39 l35 -20 6
34 c4 20 1 47 -9 71 -9 20 -16 53 -16 72 0 25 -9 42 -33 67 -32 32 -53 81 -64
155 -10 62 32 198 71 231 9 7 16 16 16 21 0 9 22 33 51 56 13 11 15 -4 13
-130 -1 -117 2 -150 17 -189 19 -48 29 -180 34 -433 1 -66 6 -156 12 -200 9
-77 0 -176 -26 -288 -11 -49 -1 -53 34 -17 45 47 51 40 52 -57 1 -177 7 -226
31 -236 15 -7 20 -17 17 -31 -14 -73 -14 -100 0 -148 8 -28 15 -69 15 -89 0
-21 5 -41 10 -44 6 -3 10 -34 10 -69 0 -35 6 -76 14 -92 17 -33 46 -139 46
-167 0 -45 36 -162 55 -181 13 -14 26 -46 34 -86 7 -36 19 -80 27 -98 12 -25
14 -55 10 -123 -3 -49 -3 -96 0 -104 10 -25 34 -17 34 10 0 18 4 23 15 19 8
-4 15 -1 15 5 0 25 19 8 41 -36 13 -27 27 -49 32 -51 4 -2 7 -12 7 -21 0 -10
3 -21 7 -25 12 -12 29 -79 25 -98 -2 -10 -13 -19 -25 -19 -12 -1 -1 -6 26 -11
35 -8 47 -15 47 -28 0 -11 5 -22 11 -26 8 -4 8 -9 1 -13 -20 -12 6 -35 40 -36
26 0 34 -4 36 -22 2 -13 7 -23 11 -23 4 0 13 -18 20 -40 9 -32 16 -40 36 -40
18 0 26 -8 35 -36 10 -29 10 -38 0 -44 -10 -6 -8 -15 9 -39 12 -17 26 -31 30
-31 4 0 27 -19 52 -42 34 -34 43 -49 41 -70 -2 -15 1 -35 7 -45 9 -16 10 -15
11 7 1 22 3 21 13 -10 10 -30 17 -35 47 -36 23 -1 41 -10 57 -28 12 -14 29
-26 38 -26 11 0 15 -11 15 -49 0 -51 23 -88 39 -62 6 9 11 8 21 -4 17 -20 40
-2 40 31 0 13 5 24 10 24 6 0 10 13 10 29 0 24 5 29 31 35 44 9 49 8 49 -8 0
-7 11 -21 24 -29 25 -17 40 -53 25 -63 -16 -10 -10 -24 11 -24 16 0 20 7 20
30 0 34 15 40 23 10 3 -13 14 -20 30 -20 13 0 36 -9 50 -20 14 -11 30 -20 37
-20 7 0 23 -9 36 -19 14 -11 44 -22 67 -26 23 -4 52 -13 64 -21 12 -8 32 -14
43 -14 12 0 30 -4 40 -10 14 -7 20 -6 24 7 6 14 8 14 24 -1 10 -9 24 -16 30
-16 7 0 12 -4 12 -10 0 -5 18 -14 40 -20 22 -6 40 -16 40 -22 0 -6 7 -5 18 5
9 8 31 17 47 18 51 5 235 -13 235 -23 0 -5 9 -7 20 -3 30 10 161 -6 153 -18
-4 -7 5 -8 25 -4 25 5 34 2 42 -13 9 -17 17 -19 53 -14 23 4 45 11 48 16 7 11
79 0 79 -12 0 -4 14 -13 30 -20 24 -10 43 -10 87 -1 80 16 123 14 123 -4 0
-11 11 -15 37 -15 37 0 37 14 0 22 -22 4 -25 20 -6 29 8 3 24 11 35 17 14 7
25 7 31 1 6 -6 16 -2 28 11 24 26 51 26 58 -1 5 -17 11 -20 31 -17 18 4 26 1
26 -8 0 -8 7 -14 15 -14 9 0 20 -12 25 -26 13 -33 13 -34 -6 -34 -12 0 -15 -6
-10 -22 3 -13 6 -31 6 -40 0 -28 37 -22 44 7 3 13 16 30 27 36 15 7 18 13 10
18 -14 9 34 120 55 128 8 3 14 11 14 19 0 8 8 14 18 14 34 0 82 31 88 56 6 22
11 25 33 19 20 -4 22 -3 11 5 -13 9 -13 11 0 20 8 5 20 10 26 10 6 0 17 7 24
15 7 8 17 12 22 9 5 -3 24 -3 42 0 29 6 37 14 54 56 15 35 17 50 9 54 -7 3 -2
3 11 0 18 -4 31 3 58 31 18 20 34 43 34 52 0 13 3 13 15 3 12 -10 15 -10 15 0
0 7 7 18 15 24 8 6 16 20 18 31 5 30 27 66 37 60 5 -3 10 5 12 17 2 12 9 23
16 24 7 1 9 0 4 -2 -14 -7 -2 -54 13 -54 8 0 21 24 29 54 13 42 21 55 38 58
14 2 24 13 29 30 9 33 24 50 67 72 23 12 32 24 32 41 0 14 4 25 9 25 5 0 7 9
4 19 -6 24 38 55 65 47 15 -5 25 2 41 29 11 20 21 45 21 55 0 10 4 20 9 22 4
2 33 51 64 110 58 112 93 168 115 181 7 5 17 20 22 33 5 13 16 24 24 24 8 0
20 16 26 35 6 19 32 68 56 109 25 41 51 94 60 119 9 28 23 47 35 50 13 4 19
14 19 34 0 17 8 33 20 41 14 8 20 23 20 46 0 18 7 39 15 46 8 7 15 19 15 27 0
8 12 39 26 69 28 59 63 171 70 221 2 18 9 44 14 58 5 14 7 32 4 40 -8 20 22
66 39 59 11 -4 13 12 11 77 -2 49 1 88 7 95 6 8 8 26 4 44 -5 25 -4 29 9 24
21 -8 21 15 0 44 -14 21 -14 25 -1 35 10 8 19 46 26 112 9 79 19 115 46 170
19 39 35 75 35 80 0 6 7 18 14 27 12 17 17 17 62 3 59 -18 91 -19 96 -3 2 6
28 13 58 15 81 5 130 41 130 97 0 31 -3 36 -22 36 -26 1 -58 22 -58 38 0 5
-11 13 -25 16 -18 5 -25 13 -25 30 0 13 -6 29 -14 35 -7 6 -16 33 -18 59 -3
26 -13 64 -23 85 -14 31 -17 54 -12 125 4 71 2 95 -15 136 -18 46 -19 61 -10
181 7 95 15 142 31 175 11 25 21 56 21 70 0 33 44 97 72 106 13 4 40 27 61 50
21 24 45 44 52 44 16 0 40 39 37 58 -2 7 7 12 21 12 14 0 30 7 37 15 7 8 21
15 31 15 11 0 19 6 19 13 0 7 12 23 26 36 33 28 28 53 -14 65 -37 10 -37 11
-17 69 8 24 14 56 13 73 -2 36 21 195 30 209 4 5 10 51 14 100 8 104 21 177
37 221 9 22 9 38 1 59 -7 20 -7 44 1 85 7 35 8 93 4 151 -3 52 -6 175 -6 274
0 132 -4 197 -15 243 -13 50 -14 69 -5 91 8 18 10 69 6 153 l-5 125 46 39 c25
21 59 59 75 83 28 43 39 101 19 101 -5 0 -10 -11 -10 -25 0 -55 -52 -115 -113
-130 -23 -6 -27 -4 -27 14 0 11 -9 35 -20 53 -23 38 -26 66 -6 74 8 3 11 15 9
29 -4 16 1 27 16 34 12 7 21 10 21 7 0 -2 21 2 47 10 74 23 93 19 93 -16 0
-16 4 -30 9 -30 12 0 21 26 21 59 0 32 25 59 60 64 15 3 24 11 25 25 1 11 14
38 29 60 27 40 46 92 46 127 0 18 -2 17 -15 -5 -8 -14 -19 -36 -25 -50 -11
-27 -14 -28 -139 -36 -70 -5 -92 -2 -142 16 -33 13 -59 27 -59 32 0 6 25 7 60
4 33 -2 62 -1 65 4 3 5 11 7 19 4 19 -7 120 48 124 69 5 26 -15 20 -45 -13
-19 -22 -35 -30 -59 -30 -18 0 -36 -5 -40 -11 -6 -11 -104 -6 -162 8 -34 8
-61 69 -58 127 2 26 7 50 11 54 3 4 32 8 63 8 62 1 102 11 102 25 0 5 35 9 78
9 138 1 272 36 272 70 0 13 -17 13 -25 0 -3 -5 -15 -10 -26 -10 -11 0 -18 4
-15 9 3 5 -50 7 -120 4 -104 -3 -128 -2 -137 11 -7 8 -25 16 -42 18 -19 2 -30
9 -30 18 0 9 12 17 30 20 24 4 26 7 13 12 -10 4 -18 11 -18 15 0 10 100 43
131 43 14 0 30 5 37 12 7 7 27 11 46 10 19 -1 37 2 41 8 3 5 16 10 28 11 18 1
17 2 -6 9 -16 5 -36 6 -44 3 -8 -3 -18 0 -23 6 -5 10 -17 10 -50 1 -62 -17
-98 4 -47 28 12 6 16 11 10 11 -18 1 -16 26 2 41 35 29 4 18 -51 -18 -142 -94
-222 -127 -288 -117 -50 8 -56 12 -79 45 -12 17 -17 45 -17 88 0 55 4 69 28
101 38 48 47 73 25 69 -10 -2 -19 5 -21 15 -3 13 3 17 22 17 21 0 26 5 26 25
0 17 7 28 23 34 25 10 51 37 60 64 4 9 27 29 52 45 25 15 45 32 45 38 0 6 7
17 15 24 9 7 13 21 10 31 -4 10 -1 28 5 40 9 15 9 24 1 32 -6 6 -11 24 -11 39
0 24 -4 28 -27 28 -21 0 -24 3 -15 12 17 17 15 38 -3 38 -10 0 -15 10 -15 29
0 32 -30 61 -62 61 -20 0 -25 15 -33 105 -8 92 -32 190 -57 234 -19 35 -20 35
-13 6 4 -16 12 -59 17 -95 5 -36 12 -80 15 -99 7 -43 -13 -34 -22 10 -21 94
-108 238 -166 275 -36 22 -39 28 -34 57 4 18 2 43 -4 57 -6 15 -10 19 -10 9
-1 -9 -9 -26 -18 -38 -17 -19 -23 -20 -98 -10 -60 8 -85 7 -102 -2 -20 -11
-27 -9 -51 14 -16 15 -37 27 -48 27 -11 0 -29 7 -40 15 -24 16 -34 11 -34 -17
0 -13 -8 -18 -27 -18 l-28 0 28 -18 c51 -34 70 -63 75 -113 5 -50 -3 -99 -16
-99 -4 0 -20 23 -37 51 -33 55 -70 99 -85 99 -17 0 -12 70 5 76 21 8 19 21 -4
29 -14 4 -22 19 -27 50 -9 62 -24 46 -17 -17 5 -37 3 -49 -5 -44 -7 4 -12 19
-12 34 0 15 -7 51 -15 81 -16 60 -10 87 11 50 17 -31 17 -14 1 31 -20 55 -37
81 -49 74 -7 -5 -8 -2 -3 5 8 15 -24 81 -40 81 -6 0 -19 16 -29 35 -20 36
-108 125 -124 125 -6 0 -12 -6 -14 -12 -6 -18 -58 6 -58 27 0 25 -46 47 -138
66 -85 17 -88 17 -128 -2 -22 -10 -53 -19 -68 -19 -68 0 -196 91 -196 140 0
21 -16 28 -22 9 -7 -21 -35 3 -50 44 -14 37 -17 39 -17 15 -1 -41 -35 -59 -93
-52 -33 5 -48 3 -48 -5 0 -6 -9 -11 -19 -11 -11 0 -23 -4 -26 -10 -11 -18 -51
-10 -76 16 -38 41 -81 56 -163 57 -41 1 -78 -2 -81 -5 -4 -3 -1 -15 6 -26 25
-40 -41 -74 -72 -36 -11 14 -13 14 -21 -1 -7 -12 -20 -14 -60 -10 -29 2 -55
10 -58 16 -4 6 -10 2 -13 -11 -4 -16 -11 -21 -22 -16 -9 3 -24 0 -34 -6 -15
-9 -22 -8 -35 4 -13 13 -23 14 -51 7 -30 -9 -40 -7 -62 10 -33 27 -52 27 -28
1 30 -33 14 -49 -46 -44 -29 1 -56 8 -60 15 -4 7 -19 9 -41 5 -33 -6 -34 -5
-30 22 2 19 -3 33 -17 46 -21 19 -22 19 -44 -1 -33 -31 -62 -36 -97 -18 -16 8
-30 19 -30 24 0 10 -88 67 -134 86 -41 17 -43 18 -50 7z m694 -197 c0 -8 -9
-15 -20 -15 -20 0 -26 11 -13 23 12 13 33 7 33 -8z m60 5 c0 -5 -4 -10 -10
-10 -5 0 -10 5 -10 10 0 6 5 10 10 10 6 0 10 -4 10 -10z m-1343 -216 c43 -35
55 -55 69 -109 8 -32 -8 -32 -49 -1 -50 37 -118 71 -169 85 -58 16 -62 38 -10
46 20 4 44 8 52 10 44 9 66 2 107 -31z m-271 -116 c26 -25 31 -48 11 -48 -14
0 -77 52 -77 63 0 16 44 5 66 -15z m-88 -53 c26 -54 26 -55 7 -55 -8 0 -15 8
-15 19 0 10 -7 24 -15 31 -16 13 -21 50 -7 50 4 0 18 -20 30 -45z m362 30 c12
-14 6 -35 -10 -35 -14 0 -41 31 -35 41 9 14 31 11 45 -6z m2860 -26 c0 -6 -4
-7 -10 -4 -5 3 -10 11 -10 16 0 6 5 7 10 4 6 -3 10 -11 10 -16z m-3152 -193
c-1 -30 0 -52 5 -49 4 2 7 -10 7 -26 0 -38 -21 -40 -37 -4 -14 29 -17 91 -7
117 3 9 13 16 21 16 12 0 14 -11 11 -54z m-188 -147 c-66 -169 -98 -213 -86
-119 6 44 52 141 90 189 21 26 18 -13 -4 -70z m54 -10 c5 -31 2 -49 -11 -72
-22 -36 -37 -37 -41 -2 -4 27 26 115 38 115 4 0 10 -18 14 -41z m3720 35 c9
-3 16 -18 16 -32 l0 -25 -23 21 c-13 12 -29 22 -36 22 -7 0 -9 5 -6 10 7 11
26 13 49 4z m136 -44 c0 -5 -7 -10 -15 -10 -8 0 -15 5 -15 10 0 6 7 10 15 10
8 0 15 -4 15 -10z m-100 -72 c0 -5 15 -31 34 -58 49 -71 62 -115 43 -144 -22
-34 -47 -56 -61 -56 -7 0 -33 30 -58 68 -46 67 -46 67 -41 137 6 97 6 96 47
77 20 -9 36 -20 36 -24z m42 12 c7 -11 20 -20 29 -20 8 0 28 -13 43 -29 23
-24 27 -35 21 -60 -6 -28 -25 -44 -25 -22 0 6 -13 25 -30 43 -16 18 -30 38
-30 45 0 7 -9 17 -20 23 -21 11 -28 40 -10 40 5 0 15 -9 22 -20z m136 -9 c6
-40 -14 -47 -42 -15 -34 38 -32 46 7 42 25 -2 33 -8 35 -27z m100 -31 c25 -23
42 -78 42 -136 0 -41 1 -42 32 -40 26 1 33 -4 39 -24 10 -37 10 -113 -1 -130
-16 -25 -34 5 -32 51 3 37 1 40 -19 34 -19 -6 -20 -4 -14 25 5 23 4 30 -4 26
-6 -4 -11 -16 -11 -27 0 -33 -43 -170 -50 -162 -4 4 -3 67 2 138 8 121 3 201
-17 248 -10 23 6 22 33 -3z m-52 -27 c3 -16 10 -41 15 -57 12 -38 12 -66 -1
-66 -11 0 -60 99 -60 122 0 37 37 38 46 1z m-31 -105 c22 -54 26 -183 7 -210
-22 -31 -32 -77 -22 -104 5 -13 8 -24 6 -24 -3 0 -11 -3 -20 -6 -10 -4 -16 -1
-16 9 0 8 -7 18 -16 21 -13 5 -15 14 -10 44 4 20 6 66 4 102 -6 130 -2 169 17
190 25 28 31 26 50 -22z m-4345 -48 c0 -5 -4 -10 -10 -10 -5 0 -10 5 -10 10 0
6 5 10 10 10 6 0 10 -4 10 -10z m4585 -119 l-8 -26 -7 25 c-3 14 -4 45 -1 70
l4 45 10 -44 c5 -24 5 -55 2 -70z m-340 28 c-7 -22 -33 -25 -41 -5 -3 8 2 26
12 41 l18 27 8 -22 c5 -13 6 -31 3 -41z m232 -26 c-3 -10 -5 -4 -5 12 0 17 2
24 5 18 2 -7 2 -21 0 -30z m-13 -90 c-7 -46 -26 -93 -36 -93 -11 0 -10 37 2
58 5 9 14 29 20 45 14 39 22 33 14 -10z m73 10 c-34 -166 -37 -174 -76 -171
l-29 2 15 51 c18 58 31 78 50 71 7 -3 13 -1 13 3 0 5 -7 11 -15 15 -31 11 -9
56 28 56 16 0 18 -5 14 -27z m43 -8 c0 -14 -4 -25 -10 -25 -11 0 -14 33 -3 43
11 11 13 8 13 -18z m115 -5 c3 -5 1 -10 -4 -10 -6 0 -11 5 -11 10 0 6 2 10 4
10 3 0 8 -4 11 -10z m-119 -485 c-6 -25 -36 -36 -36 -13 0 14 31 50 38 44 2
-3 2 -17 -2 -31z m-2656 -135 c0 -5 -10 -10 -22 -10 -21 0 -21 -2 7 -19 31
-19 151 -38 141 -22 -7 11 34 22 48 13 6 -3 29 -8 51 -9 22 -2 49 -7 60 -12
11 -5 56 -17 100 -26 44 -9 114 -32 155 -52 96 -46 107 -50 155 -62 71 -18
195 -34 202 -27 12 11 -17 24 -69 31 -26 4 -64 15 -85 26 -20 10 -45 19 -54
19 -27 0 -66 24 -61 38 2 7 -5 16 -17 19 -12 3 -21 12 -21 19 0 23 63 17 104
-11 20 -14 43 -25 50 -25 8 0 16 -6 19 -14 3 -7 21 -16 41 -20 42 -8 52 -7 49
5 -4 14 31 11 53 -5 19 -15 19 -15 -1 -30 -18 -14 -18 -15 -2 -16 9 0 17 4 17
8 0 5 18 14 40 21 22 6 40 16 40 21 0 6 9 10 20 10 17 0 20 -7 20 -40 l0 -40
48 0 c73 0 165 -21 185 -42 10 -10 24 -18 32 -18 7 0 15 -5 17 -12 2 -6 20
-12 39 -13 18 -1 50 -11 69 -23 19 -12 40 -22 45 -22 14 -1 48 -32 61 -55 6
-11 23 -26 39 -34 21 -10 24 -15 14 -22 -13 -8 -6 -13 13 -10 24 3 78 -132 78
-195 0 -41 15 -44 28 -6 l10 27 1 -32 c1 -17 7 -44 15 -60 41 -82 46 -103 36
-146 -13 -55 -12 -57 5 -57 9 0 16 10 16 28 2 26 2 26 6 3 6 -28 32 -72 50
-84 7 -4 13 -19 13 -32 0 -13 5 -27 10 -30 6 -3 10 -14 10 -24 0 -23 39 -73
51 -66 5 4 9 15 9 26 0 10 4 19 8 19 20 0 112 -80 112 -97 0 -4 14 -23 32 -42
22 -23 32 -44 32 -67 1 -25 5 -34 19 -34 9 0 17 -6 17 -12 0 -7 7 -25 14 -40
11 -20 12 -28 3 -28 -7 0 -2 -8 9 -18 12 -9 25 -34 28 -54 7 -36 6 -38 -20
-38 -27 0 -27 0 -8 -19 10 -10 22 -17 26 -14 8 4 38 -49 38 -67 0 -5 -4 -10
-10 -10 -5 0 -10 12 -10 27 0 24 -2 26 -15 13 -19 -20 -9 -60 16 -60 11 0 19
-4 19 -10 0 -17 40 -33 54 -21 16 13 26 4 26 -21 0 -11 7 -26 15 -34 8 -9 15
-23 15 -31 0 -14 -2 -14 -18 0 -16 15 -42 23 -42 14 0 -2 8 -19 17 -38 33 -66
11 -246 -37 -304 -11 -13 -14 -46 -12 -149 4 -239 9 -369 21 -551 6 -99 13
-292 16 -430 3 -137 7 -364 10 -504 5 -214 4 -259 -9 -292 -9 -21 -13 -51 -10
-67 4 -19 -1 -41 -16 -67 -12 -22 -24 -46 -26 -55 -10 -44 -24 -89 -38 -125
-8 -22 -15 -50 -16 -62 0 -12 -4 -24 -8 -27 -5 -3 -9 -18 -10 -34 0 -16 -8
-47 -17 -68 -9 -21 -17 -61 -19 -89 -2 -27 -9 -63 -15 -79 -6 -16 -9 -37 -5
-48 3 -10 3 -41 -1 -67 -6 -44 -9 -49 -37 -55 -24 -5 -29 -10 -25 -26 6 -23
-11 -39 -23 -20 -5 8 -14 2 -29 -19 -12 -17 -34 -34 -47 -37 -15 -4 -30 -18
-36 -33 l-10 -26 -20 25 c-16 20 -19 34 -15 70 l5 45 -53 -5 c-44 -4 -57 -10
-76 -35 -13 -16 -27 -32 -31 -36 -8 -5 -26 -78 -35 -142 -4 -27 -9 -37 -22
-35 -10 2 -24 -12 -38 -42 -26 -54 -28 -66 -8 -74 12 -4 15 4 16 42 1 47 1 47
9 12 16 -66 -3 -131 -26 -89 -12 23 -13 23 -20 4 -4 -11 -12 -26 -17 -33 -24
-30 -46 -121 -47 -187 0 -75 -4 -84 -35 -101 -11 -6 -27 -25 -35 -42 -8 -17
-21 -32 -27 -32 -16 0 -59 -42 -55 -54 1 -4 -3 -15 -9 -22 -10 -12 -15 -11
-32 7 -16 17 -22 19 -25 8 -9 -35 -28 -62 -50 -70 -13 -5 -26 -18 -29 -29 -3
-11 -12 -20 -19 -20 -17 0 -18 14 -3 42 9 17 8 24 -5 34 -16 11 -16 16 -2 57
10 30 13 63 9 101 -4 39 -2 56 6 56 6 0 11 8 11 18 0 29 78 173 106 195 14 11
31 26 38 34 6 7 16 20 23 27 12 14 27 51 52 129 7 21 13 70 14 110 1 62 -3 81
-27 127 -15 30 -36 64 -45 75 -9 11 -30 40 -47 64 -29 45 -112 131 -126 131
-4 0 -22 15 -40 33 -44 43 -65 51 -77 28 -16 -29 -76 -34 -124 -11 -23 11 -50
20 -62 20 -12 0 -30 9 -40 20 -10 11 -24 20 -32 20 -7 0 -13 5 -13 11 0 5 -5
7 -10 4 -13 -8 -52 4 -45 15 3 4 -2 13 -10 20 -12 10 -15 9 -15 -8 0 -20 -1
-20 -27 4 -24 22 -29 23 -39 10 -15 -21 -26 -20 -59 6 -22 17 -39 21 -77 19
-27 -1 -55 3 -63 9 -8 6 -23 9 -35 5 -26 -8 -60 3 -60 20 0 19 -128 25 -135 6
-3 -7 -12 -10 -22 -7 -9 4 -25 -1 -37 -12 -12 -11 -48 -30 -81 -43 -33 -13
-61 -27 -63 -31 -2 -5 -10 -8 -18 -8 -7 0 -23 -13 -36 -30 -33 -45 -71 -41
-225 26 -20 8 -33 21 -33 32 0 17 -32 52 -48 52 -5 0 -20 13 -34 29 -14 15
-34 35 -44 42 -11 8 -24 23 -30 34 -6 11 -33 28 -59 38 -64 24 -80 45 -52 69
33 29 61 23 84 -19 10 -17 10 -23 0 -26 -7 -3 0 -6 14 -6 14 -1 34 5 45 13 18
14 18 15 -11 38 -35 27 -100 58 -124 58 -10 0 -26 -7 -37 -15 -10 -8 -31 -15
-46 -15 -21 0 -30 8 -45 40 -17 37 -21 40 -59 40 -25 0 -47 -6 -54 -15 -7 -9
-21 -13 -31 -10 -21 7 -32 -9 -24 -34 4 -14 12 -17 28 -13 20 5 20 4 8 -11 -7
-9 -26 -17 -41 -17 -16 0 -30 -7 -34 -15 -3 -8 -11 -15 -17 -15 -7 0 -26 -16
-43 -35 -34 -38 -96 -60 -96 -33 0 8 5 19 12 26 7 7 8 12 2 12 -6 0 -23 -14
-39 -30 -23 -24 -35 -29 -57 -25 -35 8 -68 -10 -69 -38 l0 -22 -9 21 c-13 32
-19 33 -80 17 -30 -8 -66 -12 -79 -10 -14 3 -33 0 -43 -7 -15 -9 -21 -8 -28 4
-5 8 -7 23 -4 33 15 48 -58 26 -185 -58 -108 -70 -198 -205 -217 -327 -4 -21
-10 -38 -15 -38 -5 0 -9 -23 -9 -50 0 -28 -6 -59 -12 -71 -11 -17 -10 -22 4
-33 9 -7 20 -24 23 -39 4 -15 13 -27 21 -27 8 0 21 -15 29 -32 9 -18 26 -51
40 -73 14 -22 25 -48 25 -57 0 -10 4 -18 9 -18 16 0 22 -32 12 -64 -5 -17 -12
-52 -15 -77 -5 -41 -3 -48 14 -52 27 -7 25 -33 -3 -52 -13 -8 -30 -34 -37 -58
-8 -23 -19 -49 -25 -57 -21 -27 -37 -79 -32 -101 8 -29 -2 -49 -23 -49 -21 0
-32 21 -19 41 5 8 8 28 8 44 0 17 -3 24 -6 18 -2 -7 -9 -13 -15 -13 -6 0 -8 7
-4 15 3 8 -4 34 -14 57 -11 24 -20 58 -20 76 0 25 -4 32 -20 32 -16 0 -20 7
-20 38 0 20 -7 50 -15 66 -18 33 -19 79 -4 107 8 16 7 23 -5 32 -9 7 -19 30
-22 52 -3 22 -9 49 -14 60 -4 11 -13 33 -19 48 -6 16 -8 46 -5 69 5 30 4 39
-4 34 -7 -4 -12 -14 -12 -22 0 -30 -18 -12 -31 31 -7 25 -17 45 -21 45 -5 0
-6 11 -2 24 3 14 0 29 -10 39 -9 9 -16 33 -16 56 0 28 -7 48 -20 61 -12 12
-20 33 -20 54 0 18 -6 39 -13 45 -8 6 -12 23 -9 41 3 18 0 30 -7 30 -6 0 -11
-5 -11 -11 0 -14 -41 -48 -58 -49 -7 0 -15 -7 -19 -16 -11 -30 -23 8 -17 54 5
34 3 42 -9 42 -8 0 -17 -6 -20 -12 -2 -7 -8 -1 -12 15 -4 15 -13 27 -20 27 -9
0 -16 18 -20 48 -3 26 -10 57 -16 70 -5 13 -9 36 -9 52 0 17 -4 30 -10 30 -16
0 -40 69 -38 112 1 28 -4 45 -15 53 -19 13 -23 35 -7 35 19 0 10 17 -14 28
-28 13 -44 78 -27 110 7 14 8 21 1 24 -6 2 -20 39 -30 82 -22 88 -28 340 -10
418 25 109 50 229 61 288 21 122 38 182 54 194 10 7 16 31 17 73 2 35 5 63 8
63 3 0 6 18 7 39 1 22 9 53 17 70 9 16 16 47 17 68 1 37 1 37 11 11 11 -33 28
-37 28 -7 0 13 8 23 20 26 20 5 20 12 18 165 -2 101 1 161 7 166 6 4 11 18 12
32 3 71 17 171 24 176 5 3 9 14 9 25 0 11 6 27 14 35 8 8 19 40 25 72 6 31 16
71 21 87 17 47 40 177 34 186 -9 15 -24 0 -24 -24 -1 -12 -7 -33 -14 -46 -17
-31 -29 -13 -29 42 0 32 6 46 27 63 14 13 26 27 26 32 0 15 -47 2 -69 -19 -11
-10 -28 -19 -37 -19 -13 0 -15 6 -10 28 4 15 9 54 12 87 7 80 13 107 23 100 5
-3 16 -3 24 0 17 7 11 49 -9 66 -23 19 -16 26 29 33 l44 7 -5 53 c-4 49 -2 54
19 59 46 12 67 8 73 -15 3 -13 19 -37 36 -55 16 -18 30 -37 30 -42 0 -6 6 -11
14 -11 8 0 16 -7 19 -15 4 -8 24 -26 46 -40 37 -25 43 -26 88 -15 26 7 58 12
70 12 19 0 20 2 8 14 -7 8 -29 17 -48 22 -40 8 -92 50 -112 89 -8 16 -15 47
-15 70 0 23 -5 45 -10 48 -6 4 -7 11 -4 17 4 6 10 5 15 -3 7 -12 9 -12 9 0 0
8 6 11 16 7 9 -3 25 1 37 9 12 8 41 15 64 15 24 0 43 2 43 4 0 2 2 11 5 18 4
9 -2 14 -15 15 -25 2 -59 41 -60 68 0 17 -2 17 -10 5 -5 -8 -10 -13 -11 -10
-5 28 -4 50 3 50 4 0 8 7 8 15 0 11 12 15 51 15 84 0 179 30 217 67 18 18 38
33 43 33 6 0 7 5 4 11 -4 5 0 18 8 27 19 22 41 91 32 100 -4 4 -26 -14 -48
-40 -54 -59 -120 -101 -136 -85 -6 6 -11 17 -11 24 0 18 -17 16 -28 -3 -8 -15
-13 -15 -38 -3 -16 8 -36 30 -46 49 -14 31 -14 37 -1 52 13 14 13 17 -4 21
-15 4 -14 5 4 6 17 1 25 11 34 41 7 22 18 40 25 40 8 0 17 12 20 26 4 16 12
23 20 20 8 -3 14 1 14 9 0 9 19 35 42 60 33 35 45 42 55 33 10 -8 17 -8 25 0
9 9 9 12 0 12 -16 0 -15 37 1 43 8 3 20 1 27 -3 9 -6 18 1 29 23 12 25 23 32
45 32 19 1 38 11 57 33 16 18 36 32 45 32 17 0 104 59 104 70 0 4 17 12 38 19
20 7 57 31 82 53 45 40 78 58 107 58 13 0 13 -3 3 -15 -10 -13 -9 -15 9 -15
12 0 21 6 21 15 0 11 12 15 49 15 27 0 57 3 67 7 12 4 15 3 9 -6 -7 -12 9 -12
135 0 8 1 68 -2 133 -6 114 -8 118 -9 113 -29 -5 -19 -4 -20 8 -3 7 9 24 17
37 17 13 -1 49 4 79 10 138 26 320 37 320 20z m526 -75 c43 -40 42 -41 -12
-19 -48 20 -65 33 -58 45 10 17 32 9 70 -26z m394 -25 c0 -5 -18 -10 -40 -10
-22 0 -40 5 -40 10 0 6 18 10 40 10 22 0 40 -4 40 -10z m2100 -34 c0 -3 -4 -8
-10 -11 -5 -3 -10 -1 -10 4 0 6 5 11 10 11 6 0 10 -2 10 -4z m-15 -276 c3 -5
1 -10 -4 -10 -6 0 -11 5 -11 10 0 6 2 10 4 10 3 0 8 -4 11 -10z m-1265 -171
c0 -5 -4 -9 -10 -9 -5 0 -10 7 -10 16 0 8 5 12 10 9 6 -3 10 -10 10 -16z m65
-139 c8 -37 -3 -79 -16 -59 -12 19 -11 89 0 89 5 0 12 -13 16 -30z m1130 -50
c26 -11 57 -20 71 -20 14 0 30 -10 40 -25 9 -13 25 -27 37 -31 20 -6 20 -7 1
-21 -10 -7 -29 -23 -42 -33 -28 -25 -98 -41 -145 -33 -35 5 -37 8 -37 44 0 25
-6 42 -18 51 -11 8 -21 31 -25 57 l-5 43 38 -6 c21 -3 59 -15 85 -26z m226
-42 c-37 -33 -47 -35 -54 -8 -3 14 -14 20 -31 20 -14 0 -26 4 -26 10 0 5 15 9
33 8 31 -1 56 5 87 21 29 16 23 -23 -9 -51z m-4798 35 c-7 -2 -21 -2 -30 0
-10 3 -4 5 12 5 17 0 24 -2 18 -5z m3457 -53 c9 -16 8 -20 -5 -20 -8 0 -15 9
-15 20 0 11 2 20 5 20 2 0 9 -9 15 -20z m65 -96 c7 -40 0 -58 -12 -28 -3 10
-11 22 -16 25 -11 8 -2 39 12 39 5 0 12 -16 16 -36z m-3857 -223 c8 -18 19
-28 26 -25 8 3 16 -5 20 -22 14 -54 -21 -40 -48 19 -11 23 -22 45 -24 50 -2 4
0 7 5 7 4 0 14 -13 21 -29z m-268 -3 c0 -19 -2 -20 -10 -8 -13 19 -13 30 0 30
6 0 10 -10 10 -22z m4540 -455 c0 -7 -4 -13 -10 -13 -5 0 -10 3 -10 8 0 4 -3
18 -6 32 -6 24 -6 25 9 5 9 -11 17 -26 17 -32z m-3053 -2663 c-1 -11 -5 -20
-9 -20 -4 0 -7 11 -6 24 1 14 6 23 9 20 4 -2 7 -13 6 -24z m-1893 -165 c-3
-14 -10 -25 -15 -25 -11 0 -12 63 -2 74 12 12 24 -22 17 -49z m5042 -32 c-11
-21 -15 -23 -16 -10 0 24 22 65 27 50 2 -6 -3 -24 -11 -40z m-3116 -263 c50
-15 176 -16 194 -1 10 9 20 9 33 2 10 -5 25 -9 33 -9 65 4 131 -4 144 -17 8
-8 22 -15 31 -15 11 0 15 -5 11 -15 -4 -12 7 -15 67 -15 44 0 83 6 101 15 36
19 80 19 96 0 7 -8 21 -15 31 -15 11 0 19 -4 19 -9 0 -11 106 -57 152 -65 23
-4 45 -2 57 5 15 10 29 9 71 -4 29 -9 60 -17 69 -17 9 0 36 -7 60 -16 25 -8
55 -13 67 -10 15 4 32 -2 52 -19 17 -14 42 -25 57 -25 15 0 44 -10 64 -22 20
-13 51 -24 70 -25 18 -1 41 -8 50 -16 19 -17 101 -38 114 -30 6 4 8 -5 5 -21
-4 -17 0 -29 10 -35 25 -14 3 -31 -39 -31 -25 0 -54 9 -79 25 -22 14 -48 25
-59 25 -11 0 -23 5 -26 10 -3 6 -16 10 -29 10 -12 0 -26 4 -31 9 -6 4 -48 18
-94 30 -99 27 -208 31 -223 10 -7 -11 -11 -11 -15 -1 -5 14 -63 17 -63 3 0 -5
-18 -13 -40 -19 -23 -5 -40 -6 -40 -1 0 12 -47 11 -70 -1 -17 -9 -16 -12 16
-44 30 -30 46 -36 109 -47 41 -6 80 -18 86 -25 6 -8 20 -14 29 -14 10 0 20 -6
23 -12 3 -10 12 -9 36 4 55 30 119 -2 124 -62 1 -17 4 -16 30 6 37 31 50 27
61 -19 9 -36 30 -49 39 -24 12 32 19 -31 8 -72 -9 -36 -26 -59 -74 -103 -64
-60 -75 -65 -105 -47 -15 10 -23 7 -45 -15 -28 -28 -50 -32 -91 -17 -18 8 -35
5 -66 -10 -46 -22 -111 -28 -323 -29 -152 0 -295 25 -402 70 -11 5 -42 14 -70
20 -27 6 -78 25 -111 41 -34 16 -67 29 -73 29 -7 0 -31 10 -54 22 -23 11 -64
22 -91 24 -39 2 -54 8 -72 29 -19 22 -30 27 -59 23 -35 -4 -36 -3 -66 59 -16
35 -34 63 -38 63 -22 0 -44 124 -25 143 4 3 18 -1 31 -10 27 -18 31 -16 64 37
8 12 14 9 38 -18 l29 -33 13 43 c12 38 18 43 46 46 25 2 44 -5 79 -32 26 -20
50 -36 53 -36 3 0 31 9 61 20 31 11 80 20 113 20 50 0 59 -3 67 -22 5 -13 9
-18 9 -13 1 6 15 16 32 24 l31 13 -29 19 c-15 10 -58 26 -95 36 -38 10 -68 22
-68 28 0 14 -89 67 -101 59 -5 -3 -85 -6 -177 -6 -110 0 -184 -5 -217 -13 -54
-15 -116 -18 -152 -9 -25 7 -32 44 -9 44 8 0 16 5 18 11 3 8 10 8 27 -2 19
-12 23 -12 31 2 6 11 18 15 35 11 18 -3 25 0 25 12 0 11 9 16 29 16 16 0 34 7
41 15 15 18 78 20 134 4 33 -9 41 -8 60 8 59 53 80 59 136 43z m-539 -576 c35
-14 66 -30 69 -34 18 -28 86 -100 94 -100 5 0 40 -32 78 -70 63 -66 70 -70
100 -65 20 4 56 -1 93 -13 37 -12 69 -17 85 -12 14 4 34 4 45 0 11 -4 30 -4
42 1 33 12 101 5 161 -16 51 -18 54 -19 86 -1 27 14 37 15 59 5 15 -7 27 -16
27 -21 0 -14 -33 -23 -38 -10 -4 13 -42 17 -42 4 0 -15 35 -29 55 -21 37 14
65 10 65 -10 0 -11 9 -21 23 -25 41 -11 57 -7 57 14 0 11 -6 20 -12 20 -9 0
-9 3 1 9 19 12 34 5 46 -22 8 -18 20 -23 59 -25 27 -2 54 2 59 7 6 6 28 11 49
11 21 0 38 3 38 8 0 8 176 6 190 -3 6 -4 10 -17 10 -29 0 -14 15 -39 37 -60
37 -36 53 -43 67 -29 4 4 13 8 19 8 82 5 159 20 175 35 12 12 36 18 76 19 63
1 84 15 105 69 8 17 20 32 27 32 8 0 14 5 14 10 0 6 7 10 15 10 8 0 22 11 31
25 9 14 22 25 29 25 6 0 20 9 30 20 19 21 50 26 60 10 3 -5 -3 -27 -15 -49
-24 -48 -26 -71 -5 -71 8 0 15 -5 15 -11 0 -6 -7 -9 -15 -5 -19 7 -45 -3 -45
-16 0 -15 -40 -48 -58 -48 -11 0 -13 -8 -8 -31 5 -27 4 -30 -14 -24 -16 5 -20
2 -20 -19 0 -23 4 -26 34 -26 37 0 52 14 48 43 -4 19 19 77 29 77 3 0 20 -7
37 -16 32 -15 43 -46 21 -59 -6 -4 -8 -14 -5 -22 3 -8 -4 -29 -17 -46 -12 -18
-27 -41 -33 -52 -6 -11 -18 -20 -27 -20 -9 0 -27 -11 -42 -25 -23 -22 -24 -26
-10 -36 13 -10 12 -13 -9 -28 -14 -9 -32 -16 -39 -16 -8 0 -17 -10 -20 -21 -5
-17 -11 -20 -29 -15 -13 4 -39 10 -59 13 -36 5 -36 5 -43 -36 -3 -22 -10 -41
-15 -41 -6 0 -20 -18 -32 -40 -16 -29 -29 -40 -46 -40 -13 0 -23 -5 -23 -10 0
-20 -45 -29 -83 -17 -20 7 -37 15 -37 19 0 5 -13 8 -30 8 -16 0 -30 5 -30 11
0 6 -6 9 -12 6 -7 -2 -19 10 -26 27 -14 30 -14 30 -23 9 -12 -33 -22 -28 -17
7 4 23 1 30 -13 30 -13 0 -16 -6 -12 -22 l6 -23 -22 22 c-11 12 -21 32 -21 43
0 35 -19 62 -39 55 -10 -3 -24 1 -31 10 -14 17 -50 21 -50 5 0 -19 -22 -10
-48 20 -15 17 -31 30 -37 30 -7 0 -22 11 -35 25 -13 14 -41 30 -62 36 -51 13
-147 9 -163 -8 -17 -17 -25 -16 -45 2 -22 20 -105 28 -133 14 -11 -7 -32 -22
-46 -35 -14 -13 -30 -24 -34 -24 -5 0 -15 -7 -24 -16 -10 -9 -29 -14 -52 -13
-20 2 -43 -1 -51 -6 -8 -5 -22 -8 -31 -7 -15 3 -39 -35 -39 -63 0 -11 -6 -12
-25 -5 -14 5 -32 7 -40 4 -8 -4 -15 -1 -15 5 0 6 -7 8 -15 5 -8 -4 -12 -10 -9
-15 8 -14 -24 -59 -41 -59 -8 0 -15 -5 -15 -10 0 -6 -12 -16 -26 -22 -22 -10
-27 -9 -36 5 -5 10 -13 15 -18 12 -16 -10 -56 24 -70 60 -7 19 -22 37 -32 41
-13 4 -18 15 -18 45 0 34 -3 39 -23 39 -13 0 -32 9 -41 19 -17 18 -16 20 3 26
34 10 24 23 -22 30 -40 6 -44 9 -40 33 2 15 0 21 -3 15 -7 -15 -40 -17 -48 -4
-3 5 1 14 9 21 21 17 19 37 -5 50 -11 6 -20 20 -20 30 0 11 -6 20 -14 20 -8 0
-13 8 -12 18 1 12 -8 18 -31 20 -22 2 -33 9 -33 19 0 19 39 52 63 53 23 0 22
6 -5 33 -40 38 -68 85 -62 101 4 11 19 16 49 16 51 0 74 20 50 44 -9 9 -12 16
-6 16 17 0 -10 38 -31 43 -21 6 -26 72 -5 80 20 8 20 8 88 -19z m474 -834 c-3
-5 -10 -10 -16 -10 -5 0 -9 5 -9 10 0 6 7 10 16 10 8 0 12 -4 9 -10z m1025
-80 c0 -5 -4 -10 -10 -10 -5 0 -10 5 -10 10 0 6 5 10 10 10 6 0 10 -4 10 -10z
m-875 -170 c4 -6 -6 -10 -22 -10 -22 0 -25 2 -13 10 19 12 27 12 35 0z m-47
-42 c-2 -6 -12 -16 -21 -22 -13 -8 -20 -7 -27 4 -6 9 -5 17 3 22 19 12 49 9
45 -4z m26 -34 c23 -9 20 -23 -4 -17 -11 3 -20 9 -20 14 0 11 3 11 24 3z m-77
-59 c-4 -8 -11 -15 -17 -15 -7 0 -7 6 0 21 13 23 26 19 17 -6z m107 -66 c-8
-14 -34 -11 -34 4 0 8 3 17 7 20 9 9 34 -13 27 -24z m56 -13 c0 -6 -5 -3 -11
7 -6 9 -14 15 -20 12 -5 -3 -6 1 -2 11 6 16 7 15 20 -2 7 -10 13 -23 13 -28z
m670 10 c0 -3 -4 -8 -10 -11 -5 -3 -10 -1 -10 4 0 6 5 11 10 11 6 0 10 -2 10
-4z m-2180 -40 c0 -3 -4 -8 -10 -11 -5 -3 -10 -1 -10 4 0 6 5 11 10 11 6 0 10
-2 10 -4z m1678 -17 c42 2 43 2 36 -26 -4 -15 -9 -31 -11 -35 -7 -14 -31 -9
-37 8 -4 10 -13 13 -26 9 -14 -5 -20 -2 -20 10 0 8 -7 18 -15 21 -24 10 -17
26 8 18 12 -4 41 -6 65 -5z m502 -9 c0 -11 -4 -20 -10 -20 -5 0 -10 9 -10 20
0 11 5 20 10 20 6 0 10 -9 10 -20z m-82 -34 c3 -24 1 -27 -17 -21 -28 9 -74
-23 -68 -47 4 -12 0 -18 -13 -18 -16 0 -16 3 -2 46 11 34 19 44 31 39 8 -3 12
-3 8 1 -8 8 33 33 48 30 6 -2 11 -15 13 -30z m-352 -2 c-11 -7 -22 -12 -25 -9
-2 3 4 12 15 19 10 8 21 12 24 9 3 -2 -4 -11 -14 -19z m244 6 c0 -19 -11 -26
-23 -14 -8 8 3 34 14 34 5 0 9 -9 9 -20z m-133 -56 c-3 -3 -12 -4 -19 -1 -8 3
-5 6 6 6 11 1 17 -2 13 -5z m83 -18 c0 -8 -7 -16 -15 -20 -15 -5 -21 14 -8 27
11 12 23 8 23 -7z m40 -55 c0 -20 -35 -51 -57 -51 -19 0 -16 13 10 43 26 31
47 34 47 8z m-1600 -341 c0 -5 -4 -10 -10 -10 -5 0 -10 5 -10 10 0 6 5 10 10
10 6 0 10 -4 10 -10z m160 -95 c0 -8 -4 -15 -10 -15 -5 0 -10 7 -10 15 0 8 5
15 10 15 6 0 10 -7 10 -15z m750 -215 c0 -5 -4 -10 -10 -10 -5 0 -10 5 -10 10
0 6 5 10 10 10 6 0 10 -4 10 -10z m1320 -88 c0 -10 -4 -10 -16 2 -8 9 -12 21
-8 27 7 13 24 -7 24 -29z m-487 -19 c-7 -2 -21 -2 -30 0 -10 3 -4 5 12 5 17 0
24 -2 18 -5z"/>
<path d="M15271 37194 c0 -11 3 -14 6 -6 3 7 2 16 -1 19 -3 4 -6 -2 -5 -13z"/>
<path d="M19020 36665 c-13 -16 -7 -45 10 -45 5 0 10 14 10 30 0 34 -3 36 -20
15z"/>
<path d="M18590 36605 c0 -8 5 -15 10 -15 6 0 10 7 10 15 0 8 -4 15 -10 15 -5
0 -10 -7 -10 -15z"/>
<path d="M15117 36483 c-9 -9 -9 -43 1 -43 4 0 12 11 19 25 9 19 8 25 -1 25
-7 0 -16 -3 -19 -7z"/>
<path d="M15086 36395 c-4 -14 -19 -33 -34 -42 -15 -10 -29 -21 -32 -24 -3 -4
-19 -9 -35 -12 -24 -3 -22 -4 12 -6 30 -1 48 5 60 18 10 10 25 20 33 23 8 3
15 18 16 36 2 38 -11 42 -20 7z"/>
<path d="M15622 36359 c2 -6 8 -10 13 -10 5 0 11 4 13 10 2 6 -4 11 -13 11 -9
0 -15 -5 -13 -11z"/>
<path d="M15334 36175 c-7 -18 -51 -20 -56 -3 -2 6 -26 -11 -53 -37 -26 -27
-43 -51 -37 -53 7 -2 12 -16 12 -30 -1 -26 -1 -26 -16 -7 -13 17 -16 18 -24 5
-5 -8 -10 -23 -10 -32 0 -10 -7 -18 -15 -18 -8 0 -15 -8 -15 -18 0 -9 -9 -23
-20 -30 -12 -7 -20 -18 -19 -25 3 -26 -2 -36 -21 -42 -12 -4 -20 -15 -20 -28
0 -14 -16 -36 -40 -57 -24 -21 -35 -37 -29 -41 8 -5 7 -18 -2 -45 -16 -46 -45
-80 -52 -61 -3 7 -6 2 -6 -10 -1 -23 -21 -33 -21 -11 0 22 -33 -19 -46 -59 -8
-21 -14 -59 -14 -85 0 -36 -4 -48 -15 -48 -10 0 -15 10 -16 28 0 27 0 27 -11
4 -10 -19 -8 -25 9 -37 11 -8 26 -28 33 -45 8 -18 20 -30 31 -30 12 0 19 -7
19 -20 0 -17 3 -19 18 -11 11 6 24 6 32 1 12 -8 11 -12 -6 -28 -11 -10 -25
-21 -32 -23 -8 -3 -5 -9 8 -17 18 -11 25 -7 62 28 24 22 51 40 60 40 10 0 18
7 18 15 0 8 9 15 19 15 10 0 21 6 24 14 3 8 18 16 33 18 30 3 58 37 37 45 -22
8 -14 22 15 25 22 2 27 8 27 31 -1 23 3 27 27 27 25 0 28 4 34 40 l7 41 41 -6
c47 -7 123 17 143 46 17 23 125 40 260 39 45 0 85 5 88 10 10 16 62 12 108 -9
52 -24 83 -33 122 -37 17 -2 71 -8 120 -13 172 -20 175 -20 175 -3 0 12 9 14
46 8 55 -7 74 4 74 43 0 15 5 32 11 38 5 5 11 35 12 66 1 33 6 53 12 50 6 -3
0 5 -12 18 -13 13 -38 41 -57 62 -18 20 -36 37 -39 37 -2 0 -3 -30 -1 -67 l4
-68 -20 40 c-43 85 -66 118 -95 134 -16 9 -35 22 -43 29 -18 16 -32 15 -32 -2
0 -23 -23 -24 -52 -3 -26 19 -33 20 -128 8 -55 -7 -108 -10 -118 -7 -9 3 -53
0 -97 -8 -43 -8 -86 -12 -95 -9 -12 4 -12 3 -1 -5 23 -16 -6 -25 -98 -29 -168
-7 -166 -7 -192 -36 -17 -20 -37 -30 -69 -34 -25 -3 -47 -9 -50 -12 -17 -20
-72 -51 -82 -45 -7 4 -8 3 -4 -5 5 -7 -20 -38 -66 -81 -40 -39 -76 -70 -80
-70 -4 0 -5 -7 -1 -16 5 -14 3 -15 -15 -5 -18 10 -20 15 -10 41 5 17 13 28 16
27 9 -5 42 30 35 36 -3 3 1 22 8 41 11 29 18 36 40 36 28 0 39 15 39 56 0 19
5 24 24 24 15 0 27 7 31 19 8 25 40 61 54 61 6 0 11 7 11 15 0 23 49 65 75 65
29 0 33 23 13 77 -13 36 -25 42 -34 18z m-338 -572 c-10 -10 -19 5 -10 18 6
11 8 11 12 0 2 -7 1 -15 -2 -18z"/>
<path d="M18680 36100 c0 -11 7 -20 15 -20 13 0 14 4 5 20 -6 11 -13 20 -15
20 -3 0 -5 -9 -5 -20z"/>
<path d="M18740 35991 c0 -17 43 -63 68 -72 33 -13 39 -5 13 18 -12 9 -21 21
-21 26 0 14 -27 37 -44 37 -9 0 -16 -4 -16 -9z"/>
<path d="M17991 35889 c-18 -6 -35 -18 -38 -27 -3 -9 -27 -35 -54 -57 -27 -22
-49 -45 -49 -52 0 -6 -5 -15 -11 -19 -11 -7 -7 38 8 84 3 10 -3 7 -16 -8 -15
-19 -23 -22 -29 -12 -5 7 -8 -3 -8 -26 1 -22 6 -45 12 -53 12 -15 23 -53 31
-112 5 -39 12 -43 78 -49 34 -3 47 -34 18 -41 -19 -4 -16 -7 33 -22 11 -4 15
-13 12 -30 -6 -29 -2 -30 46 -10 20 9 41 13 46 10 4 -3 10 0 12 5 4 12 310 28
388 21 14 -2 58 1 98 5 69 7 72 6 72 -14 0 -16 13 -25 57 -42 31 -11 68 -20
82 -18 19 2 29 -3 36 -19 5 -13 13 -23 17 -23 15 0 78 -76 78 -96 0 -11 17
-38 37 -60 31 -33 37 -46 38 -89 1 -56 12 -95 26 -95 5 0 9 -7 9 -15 0 -8 5
-15 10 -15 6 0 10 -7 10 -15 0 -8 15 -24 33 -35 17 -10 38 -24 44 -30 9 -8 16
-5 25 10 17 26 34 25 44 -2 6 -18 8 -12 11 27 2 28 7 53 11 57 4 4 6 28 3 54
-2 27 -6 41 -11 34 -5 -7 -9 4 -12 30 -2 23 0 44 4 46 10 6 -11 62 -26 67 -7
3 -16 28 -20 56 -4 28 -10 51 -15 51 -5 0 -11 13 -14 29 -4 16 -12 35 -20 42
-7 7 -12 23 -9 35 5 29 -16 41 -33 18 -14 -18 -14 -18 -15 2 0 34 -117 163
-149 165 -36 3 -42 4 -49 14 -4 6 -32 16 -62 23 -111 26 -146 35 -188 48 -23
8 -59 14 -80 14 -20 1 -55 9 -77 20 -22 11 -45 19 -51 20 -5 0 -29 9 -52 20
-22 11 -53 20 -67 20 -20 0 -26 4 -23 18 3 14 -10 19 -87 29 -49 6 -99 14
-110 17 -11 2 -35 0 -54 -5z"/>
<path d="M14920 35855 c0 -8 5 -15 10 -15 6 0 10 7 10 15 0 8 -4 15 -10 15 -5
0 -10 -7 -10 -15z"/>
<path d="M18870 35831 c0 -19 22 -23 38 -7 15 15 14 16 -11 16 -15 0 -27 -4
-27 -9z"/>
<path d="M19191 35664 c0 -11 3 -14 6 -6 3 7 2 16 -1 19 -3 4 -6 -2 -5 -13z"/>
<path d="M16065 35522 c-11 -2 -24 -8 -30 -12 -5 -4 -46 -13 -90 -19 -355 -54
-474 -94 -648 -215 -33 -23 -66 -45 -75 -51 -9 -5 -30 -24 -47 -41 -16 -17
-47 -43 -68 -58 -25 -19 -36 -33 -33 -44 7 -22 -49 -49 -129 -61 -33 -5 -72
-14 -87 -20 -29 -11 -38 -36 -16 -43 10 -4 10 -11 2 -29 -6 -13 -9 -52 -6 -87
5 -68 19 -85 53 -64 10 7 28 12 40 12 18 0 94 35 109 50 3 3 22 14 43 24 20
11 37 23 37 28 0 4 5 8 11 8 7 0 18 8 25 18 10 12 13 13 14 3 0 -8 -7 -19 -15
-25 -14 -10 -13 -14 5 -34 23 -24 59 -28 109 -11 25 9 35 9 44 -1 9 -10 9 -14
-1 -17 -7 -3 -18 -10 -25 -17 -6 -6 -23 -20 -37 -29 l-24 -17 44 0 c59 0 90
-9 90 -25 0 -9 20 -16 58 -20 31 -4 71 -13 87 -20 33 -15 163 -35 268 -42 37
-3 67 -9 67 -14 0 -5 5 -9 10 -9 6 0 10 16 10 36 0 23 6 42 18 50 29 23 0 31
-106 28 -112 -2 -293 30 -312 56 -3 3 -26 17 -52 29 -52 25 -60 46 -29 73 11
9 23 33 27 53 6 32 13 40 51 56 50 21 93 25 110 8 6 -6 33 -12 62 -13 28 -1
54 -5 57 -9 4 -4 40 -4 80 0 53 4 74 3 74 -6 0 -6 -8 -11 -17 -11 -11 0 -13
-3 -8 -9 6 -6 28 -6 54 -1 57 10 74 4 67 -26 l-6 -23 116 6 c111 6 116 5 112
-13 -2 -12 4 -23 17 -29 11 -6 20 -19 20 -29 0 -29 -75 -64 -225 -105 -14 -3
-26 -14 -28 -24 -3 -15 6 -17 67 -17 53 0 71 -3 71 -14 0 -21 66 -27 114 -11
22 8 61 15 86 15 62 0 88 9 95 30 3 11 21 24 40 30 18 6 39 17 45 25 6 8 17
12 23 9 7 -2 17 6 22 18 6 13 20 24 33 26 12 2 22 10 22 18 0 10 12 14 40 14
30 0 40 4 40 16 0 8 5 12 10 9 19 -12 10 -40 -24 -76 -26 -27 -32 -39 -23 -48
16 -16 37 -14 37 4 0 8 5 15 10 15 6 0 10 11 10 24 0 13 7 26 15 30 8 3 15 16
15 29 0 14 -7 30 -15 37 -20 16 -19 41 2 85 10 21 24 35 35 35 15 0 18 9 18
55 0 44 -4 56 -20 65 -11 6 -22 26 -26 46 -3 19 -15 41 -25 47 -11 7 -19 20
-19 29 0 12 -14 24 -40 34 -22 9 -40 22 -40 30 0 8 -10 14 -24 14 -19 0 -23 4
-19 19 5 19 -29 41 -35 22 -3 -10 -74 17 -80 32 -2 4 -8 7 -14 7 -5 0 -17 9
-26 20 -12 15 -36 24 -79 30 -34 4 -67 12 -74 15 -15 10 -119 22 -144 17z m-5
-172 c0 -5 -7 -10 -15 -10 -8 0 -15 5 -15 10 0 6 7 10 15 10 8 0 15 -4 15 -10z
m138 -165 c17 -14 34 -25 39 -25 5 0 20 -12 34 -26 l24 -26 -24 -19 c-18 -15
-39 -19 -92 -19 -66 0 -69 1 -69 23 0 38 31 117 45 117 7 0 27 -11 43 -25z
m-518 -37 c0 -21 -28 -24 -36 -4 -3 8 -12 12 -20 9 -22 -8 -16 14 8 32 21 14
24 14 35 -2 7 -9 13 -25 13 -35z m158 24 c2 -13 -2 -22 -10 -22 -20 0 -37 20
-31 37 8 21 38 11 41 -15z m204 16 c7 -19 -2 -38 -17 -38 -21 0 -28 19 -15 35
15 18 26 19 32 3z m278 -103 c0 -8 -7 -15 -15 -15 -16 0 -20 12 -8 23 11 12
23 8 23 -8z m-176 -81 c50 -19 -13 -44 -110 -44 -19 0 -34 -5 -34 -11 0 -5 -4
-8 -8 -5 -5 3 -7 19 -4 36 l4 30 68 0 c38 0 75 -3 84 -6z m16 -284 c0 -31 -17
-39 -38 -18 -14 14 2 48 23 48 10 0 15 -10 15 -30z"/>
<path d="M17896 35375 c-16 -8 -50 -15 -76 -15 -38 0 -54 -6 -79 -27 -17 -15
-31 -36 -31 -45 0 -11 -11 -23 -26 -28 -14 -6 -52 -33 -83 -60 -32 -28 -63
-50 -69 -50 -7 0 -12 -5 -12 -11 0 -6 -12 -26 -27 -44 -52 -62 -64 -80 -74
-118 -6 -21 -7 -52 -4 -68 4 -19 3 -29 -5 -29 -26 0 15 -125 46 -143 8 -4 14
-15 14 -22 0 -26 18 -16 30 18 7 17 14 26 17 20 2 -7 9 -13 15 -13 9 0 118
-106 118 -115 0 -10 57 -65 67 -65 7 0 13 -7 13 -15 0 -18 76 -59 96 -51 8 3
14 1 14 -4 0 -6 -5 -10 -11 -10 -8 0 -8 -5 1 -15 7 -8 21 -15 32 -15 10 0 30
-12 43 -26 21 -22 30 -25 60 -20 22 4 35 3 35 -4 0 -5 -4 -10 -10 -10 -5 0
-10 -6 -10 -13 0 -19 92 -57 138 -57 23 0 42 -5 45 -12 4 -10 7 -10 18 0 7 6
21 12 31 12 14 0 16 6 12 30 -6 25 -3 30 14 30 11 0 25 7 32 15 9 11 32 15 79
15 36 0 84 5 106 10 67 17 261 25 269 11 7 -11 46 -16 46 -5 0 4 -15 23 -32
44 -18 20 -38 45 -43 55 -7 12 -24 19 -50 20 -76 4 -83 6 -55 15 l25 8 -27 1
c-18 1 -28 -4 -28 -13 0 -11 -28 -15 -120 -21 -127 -8 -280 1 -280 16 0 5 -9
9 -21 9 -11 0 -29 5 -40 10 -13 7 -19 7 -19 0 0 -5 -4 -10 -10 -10 -5 0 -10 6
-10 13 0 13 -60 37 -94 37 -9 0 -16 7 -16 16 0 11 -6 15 -19 11 -13 -3 -18 0
-15 8 3 7 1 16 -4 19 -13 8 9 56 26 56 6 0 12 5 12 11 0 7 10 9 26 5 25 -7 26
-5 20 21 -4 16 -3 23 2 16 4 -7 39 -15 77 -18 66 -5 68 -5 52 13 -21 23 -23
39 -3 23 10 -8 56 -11 142 -10 89 1 129 -1 132 -9 2 -7 24 -12 48 -12 56 0
150 -38 134 -54 -8 -8 -13 -7 -20 4 -9 13 -10 13 -10 0 0 -24 13 -36 43 -44
15 -3 27 -11 27 -16 0 -6 6 -10 14 -10 16 0 88 -69 82 -78 -2 -4 15 -6 37 -4
55 4 127 -28 162 -72 21 -27 33 -33 58 -32 29 2 32 5 29 34 -2 26 2 32 18 32
13 0 20 -7 20 -20 0 -13 7 -20 20 -20 13 0 20 7 20 19 0 11 5 23 10 26 20 12
9 33 -20 38 -30 6 -70 39 -70 57 0 6 10 10 23 10 22 0 22 0 -3 15 -14 8 -32
17 -40 21 -35 16 -59 47 -51 63 10 18 3 71 -9 71 -4 0 -10 13 -13 28 -3 15
-20 43 -37 62 -17 19 -37 49 -44 65 -7 17 -34 52 -60 79 -25 26 -46 52 -46 57
0 5 -6 9 -14 9 -8 0 -21 8 -28 18 -16 22 -113 82 -133 82 -9 0 -23 4 -33 9
-39 20 -93 41 -105 41 -27 0 -281 113 -292 129 -9 15 -188 12 -219 -4z m23
-405 c0 -33 -2 -60 -4 -60 -1 0 -15 6 -30 14 -33 17 -59 52 -51 71 6 15 66 45
78 38 4 -2 7 -30 7 -63z m125 4 c7 -17 0 -34 -14 -34 -11 0 -21 30 -14 41 8
14 21 11 28 -7z m371 2 c8 -7 12 -15 10 -18 -2 -2 16 -13 41 -23 27 -13 43
-26 42 -35 -5 -26 -158 -42 -158 -17 0 25 32 107 42 107 5 0 16 -6 23 -14z
m-275 -11 c0 -8 -7 -15 -15 -15 -16 0 -20 12 -8 23 11 12 23 8 23 -8z m125 6
c3 -5 -2 -17 -11 -26 -19 -19 -40 -6 -31 19 7 17 32 21 42 7z m-828 -113 c-3
-8 -6 -5 -6 6 -1 11 2 17 5 13 3 -3 4 -12 1 -19z m286 -215 c-7 -2 -21 -2 -30
0 -10 3 -4 5 12 5 17 0 24 -2 18 -5z m247 -118 c25 -7 70 -19 100 -25 74 -14
85 -22 71 -49 -7 -11 -18 -21 -26 -21 -7 0 -15 -5 -17 -10 -2 -6 -24 -2 -56 9
-40 15 -60 17 -85 10 -40 -11 -37 -12 -37 6 0 8 -7 15 -15 15 -8 0 -15 5 -15
10 0 6 -8 10 -17 11 -15 0 -15 2 2 9 19 7 18 9 -7 19 -16 6 -28 18 -28 27 0
14 7 15 43 10 23 -4 62 -13 87 -21z m218 -136 c-16 -11 -50 -11 -75 -2 -14 6
-10 9 17 13 45 7 77 1 58 -11z m-111 5 c-3 -3 -12 -4 -19 -1 -8 3 -5 6 6 6 11
1 17 -2 13 -5z m103 -65 c0 -5 -4 -9 -10 -9 -5 0 -10 7 -10 16 0 8 5 12 10 9
6 -3 10 -10 10 -16z"/>
<path d="M14761 35344 c0 -11 3 -14 6 -6 3 7 2 16 -1 19 -3 4 -6 -2 -5 -13z"/>
<path d="M14885 35230 c-4 -6 7 -10 25 -10 18 0 29 4 25 10 -3 6 -15 10 -25
10 -10 0 -22 -4 -25 -10z"/>
<path d="M14664 35169 c-10 -17 13 -36 27 -22 12 12 4 33 -11 33 -5 0 -12 -5
-16 -11z"/>
<path d="M14720 34740 c0 -13 7 -20 20 -20 23 0 26 10 8 28 -18 18 -28 15 -28
-8z"/>
<path d="M16366 34213 c-21 -2 -45 -10 -52 -16 -28 -25 -40 -33 -56 -40 -11
-4 -18 -17 -18 -32 0 -14 -5 -25 -11 -25 -17 0 -41 -29 -33 -41 5 -9 11 -7 20
6 16 21 74 17 126 -10 53 -28 108 -35 166 -23 37 8 52 16 52 28 0 9 5 21 11
27 6 6 9 23 7 39 -2 21 -9 30 -26 32 -12 2 -33 14 -47 28 -13 13 -32 24 -42
24 -10 0 -27 2 -38 4 -11 2 -38 1 -59 -1z m27 -140 c-7 -2 -19 -2 -25 0 -7 3
-2 5 12 5 14 0 19 -2 13 -5z"/>
<path d="M17517 34108 c-4 -13 -2 -24 3 -26 6 -2 10 -11 9 -20 0 -9 -3 -12 -5
-6 -7 16 -64 -2 -101 -32 -27 -22 -27 -23 -5 -24 12 0 22 4 22 10 0 5 7 7 16
3 11 -4 12 -8 4 -13 -7 -4 2 -10 22 -14 19 -4 34 -2 36 4 2 6 12 4 25 -5 12
-8 29 -15 39 -15 10 0 18 -4 18 -10 0 -5 9 -10 20 -10 11 0 20 6 20 14 0 12
-64 104 -81 116 -4 3 -8 14 -10 24 -6 28 -25 30 -32 4z"/>
<path d="M15956 33954 c-8 -20 -8 -69 0 -77 9 -8 64 21 64 34 0 17 -32 59 -45
59 -7 0 -16 -7 -19 -16z"/>
<path d="M16100 33900 c0 -11 5 -20 10 -20 6 0 10 9 10 20 0 11 -4 20 -10 20
-5 0 -10 -9 -10 -20z"/>
<path d="M17817 33853 c-20 -20 12 -131 49 -168 23 -22 49 -19 52 8 5 49 -38
147 -64 147 -8 0 -14 5 -14 10 0 11 -13 13 -23 3z"/>
<path d="M17300 33608 c-41 -12 -50 -23 -50 -63 l1 -30 17 28 c14 23 23 27 65
27 33 0 49 5 53 15 4 8 13 15 21 15 8 0 11 5 8 10 -8 12 -69 11 -115 -2z"/>
<path d="M17440 33610 c0 -5 7 -10 15 -10 8 0 24 -9 35 -20 17 -17 18 -21 6
-26 -9 -3 -18 -14 -21 -25 -4 -10 -13 -19 -21 -19 -8 0 -14 -7 -14 -15 0 -18
57 -21 93 -4 55 25 58 100 5 118 -39 14 -98 14 -98 1z"/>
<path d="M15015 33139 c-4 -6 -5 -12 -2 -15 2 -3 7 2 10 11 7 17 1 20 -8 4z"/>
<path d="M15201 32384 c0 -11 3 -14 6 -6 3 7 2 16 -1 19 -3 4 -6 -2 -5 -13z"/>
<path d="M16788 32895 c-12 -12 4 -45 22 -45 10 0 20 -7 24 -15 8 -23 26 -18
23 6 -1 12 4 24 11 26 7 3 12 -4 12 -16 0 -26 11 -27 33 -1 18 21 47 27 47 9
0 -5 5 -7 11 -3 7 4 -3 14 -26 25 -43 21 -65 24 -65 9 0 -13 -77 -13 -82 1 -2
5 -6 7 -10 4z"/>
<path d="M17000 32860 c0 -5 7 -10 15 -10 8 0 15 5 15 10 0 6 -7 10 -15 10 -8
0 -15 -4 -15 -10z"/>
<path d="M17760 31890 c0 -5 5 -10 11 -10 5 0 7 5 4 10 -3 6 -8 10 -11 10 -2
0 -4 -4 -4 -10z"/>
<path d="M17378 31673 c7 -3 16 -2 19 1 4 3 -2 6 -13 5 -11 0 -14 -3 -6 -6z"/>
<path d="M17213 39805 c11 -7 26 -11 35 -8 13 6 13 8 -4 14 -10 4 -26 8 -34 8
-12 0 -11 -3 3 -14z"/>
<path d="M18999 39223 c13 -25 73 -85 78 -79 8 7 -61 95 -75 96 -9 0 -10 -5
-3 -17z"/>
<path d="M19551 39016 c2 -2 15 -9 29 -15 24 -11 24 -11 6 3 -16 13 -49 24
-35 12z"/>
<path d="M14931 38713 c0 -25 1 -26 9 -8 12 27 12 35 0 35 -5 0 -10 -12 -9
-27z"/>
<path d="M20080 37775 c0 -9 6 -12 15 -9 8 4 15 10 15 15 0 5 -7 9 -15 9 -8 0
-15 -7 -15 -15z"/>
<path d="M20175 37740 c-3 -5 1 -10 9 -10 9 0 16 5 16 10 0 6 -4 10 -9 10 -6
0 -13 -4 -16 -10z"/>
<path d="M19990 37600 c-12 -8 -9 -10 12 -10 15 0 30 5 33 10 8 13 -25 13 -45
0z"/>
<path d="M20247 37383 c-7 -36 -2 -41 13 -13 8 14 8 26 2 32 -6 6 -11 -1 -15
-19z"/>
<path d="M14105 36890 c-3 -5 -1 -10 4 -10 6 0 11 5 11 10 0 6 -2 10 -4 10 -3
0 -8 -4 -11 -10z"/>
<path d="M13811 35241 c-9 -6 -10 -14 -4 -25 9 -16 11 -16 23 -1 16 19 2 38
-19 26z"/>
<path d="M13831 35148 c-1 -16 4 -28 9 -28 12 0 12 8 0 35 -8 18 -9 17 -9 -7z"/>
<path d="M13840 35057 c0 -9 -6 -17 -14 -17 -18 0 -33 -45 -46 -145 -6 -44
-15 -107 -20 -140 -16 -98 -4 -280 25 -387 10 -37 20 -28 54 45 28 62 28 62
21 207 -5 80 -14 189 -21 242 -10 77 -10 108 -1 149 7 29 10 54 7 57 -3 3 -5
-2 -5 -11z"/>
<path d="M19841 34411 c-10 -19 -41 -182 -47 -251 -7 -74 -16 -120 -25 -125
-5 -4 -9 -25 -9 -48 1 -56 23 -204 32 -213 4 -4 19 17 33 47 14 30 36 72 50
94 28 46 30 72 10 100 -11 13 -13 32 -9 65 3 26 1 71 -5 101 -7 34 -8 83 -2
134 8 82 5 115 -10 115 -4 0 -13 -9 -18 -19z"/>
<path d="M19542 34123 c2 -10 10 -18 18 -18 22 0 18 29 -3 33 -14 3 -18 -1
-15 -15z"/>
<path d="M19330 33173 c0 -22 2 -25 10 -13 13 20 13 40 0 40 -5 0 -10 -12 -10
-27z"/>
<path d="M19524 33143 c-30 -6 -44 -44 -44 -120 l0 -66 25 37 c44 65 73 159
48 155 -5 -1 -18 -4 -29 -6z"/>
<path d="M14504 30927 c-128 -138 -205 -230 -320 -387 -120 -161 -149 -208
-230 -365 l-62 -120 -68 -25 c-38 -14 -107 -34 -154 -44 -47 -9 -137 -35 -200
-56 -63 -21 -169 -50 -235 -65 -66 -14 -163 -39 -216 -55 -52 -16 -151 -43
-220 -59 -68 -16 -160 -41 -204 -54 -44 -13 -111 -34 -150 -45 -38 -11 -128
-39 -200 -61 -71 -22 -197 -58 -280 -81 -211 -58 -550 -170 -677 -224 -59 -25
-110 -46 -113 -46 -2 0 -28 -11 -57 -24 -85 -38 -96 -40 -234 -37 -123 3 -136
1 -220 -28 -49 -16 -152 -64 -229 -105 -77 -42 -153 -80 -170 -85 -74 -23
-368 -148 -490 -208 -104 -52 -222 -102 -290 -124 -32 -11 -78 -31 -101 -44
-24 -14 -51 -25 -61 -25 -23 0 -151 -62 -181 -89 -34 -30 -53 -71 -41 -92 14
-28 11 -45 -17 -86 -25 -36 -316 -614 -361 -718 -12 -27 -49 -111 -81 -185
-33 -74 -69 -155 -80 -180 -51 -111 -208 -514 -237 -610 -7 -25 -39 -128 -70
-230 -30 -102 -71 -243 -90 -315 -107 -403 -157 -585 -193 -710 -22 -77 -49
-174 -60 -215 -39 -149 -103 -383 -227 -830 -19 -69 -41 -152 -49 -185 -8 -33
-39 -157 -70 -275 -56 -219 -124 -513 -156 -675 -10 -49 -30 -135 -43 -190
-14 -55 -33 -138 -41 -184 -9 -46 -25 -120 -36 -165 -11 -45 -35 -169 -54
-276 -19 -107 -46 -247 -60 -310 -29 -135 -87 -434 -116 -605 -12 -66 -39
-221 -60 -345 -22 -124 -44 -244 -50 -267 -5 -24 -17 -93 -26 -154 -26 -186
-149 -871 -225 -1254 -45 -227 -79 -423 -109 -638 -21 -147 -30 -231 -50 -462
-5 -66 -17 -167 -25 -225 -8 -58 -19 -155 -25 -216 -5 -61 -20 -140 -31 -175
-12 -35 -36 -116 -54 -179 -18 -63 -44 -146 -59 -185 -80 -212 -111 -381 -103
-564 5 -130 33 -227 85 -303 75 -108 75 -109 67 -253 -4 -71 -13 -179 -21
-239 -8 -61 -14 -148 -14 -195 0 -47 -8 -117 -17 -156 -9 -38 -17 -104 -17
-146 l-1 -77 -80 -84 c-106 -110 -129 -156 -133 -273 -2 -49 1 -162 7 -250 11
-171 8 -191 -49 -460 -11 -49 -26 -121 -34 -160 -8 -38 -53 -223 -99 -410
-105 -418 -130 -559 -157 -870 -6 -66 -17 -155 -25 -199 -8 -43 -15 -104 -15
-135 0 -56 -33 -282 -44 -299 -6 -10 -26 -132 -57 -342 -30 -212 -19 -375 77
-1055 14 -99 30 -196 36 -215 13 -41 136 -298 153 -320 6 -8 30 -58 53 -111
41 -96 42 -97 27 -139 -27 -77 -91 -381 -103 -495 -5 -44 -19 -114 -31 -155
-34 -120 -49 -189 -76 -342 -13 -78 -33 -181 -43 -228 -11 -47 -23 -107 -27
-135 -4 -27 -27 -160 -52 -295 -25 -135 -49 -265 -53 -290 -5 -25 -22 -101
-38 -170 -17 -69 -33 -147 -36 -175 -3 -27 -9 -67 -12 -87 -7 -45 -4 -45 68
-18 68 26 78 25 78 -4 0 -56 -12 -84 -38 -91 -14 -3 -45 -18 -69 -32 -47 -27
-53 -50 -33 -123 8 -31 38 -326 55 -540 3 -41 10 -118 15 -170 5 -52 12 -140
15 -195 4 -55 11 -138 16 -185 5 -47 9 -109 9 -137 0 -29 2 -53 5 -53 2 0 34
11 71 25 36 14 68 25 70 25 1 0 4 -21 6 -47 3 -45 5 -48 33 -51 23 -2 36 -11
48 -35 16 -29 16 -43 7 -127 -6 -52 -13 -103 -15 -115 -13 -55 -37 -371 -41
-535 -2 -102 -9 -207 -14 -235 -6 -30 -8 -233 -6 -510 4 -446 4 -462 26 -515
12 -30 26 -60 31 -66 5 -6 18 -37 29 -69 11 -32 55 -126 98 -209 79 -153 80
-155 259 -711 64 -198 133 -356 212 -485 25 -41 57 -97 71 -123 54 -105 171
-217 225 -217 8 0 19 -15 25 -34 13 -40 114 -211 144 -244 41 -46 104 -63 336
-91 36 -5 125 -31 200 -59 74 -27 155 -53 180 -57 52 -9 83 -23 125 -60 17
-15 50 -39 75 -53 25 -14 77 -47 116 -74 90 -59 142 -73 242 -64 42 4 127 11
187 15 61 5 128 14 150 19 22 6 85 13 140 17 126 9 142 15 165 67 54 119 -2
243 -158 348 -29 19 -52 40 -52 45 0 14 54 41 106 54 34 9 44 18 64 58 34 67
33 141 -2 213 -15 30 -39 64 -54 75 -71 52 -68 44 -40 105 24 53 25 63 24 230
-1 98 4 206 11 245 7 39 16 138 21 220 5 84 16 176 26 210 23 82 24 258 1 410
-48 315 -73 710 -58 904 9 128 9 152 -9 239 -10 53 -32 138 -49 187 -18 55
-32 123 -35 175 -19 246 -85 552 -146 667 -22 42 -40 83 -40 91 0 9 -20 61
-44 116 -24 56 -59 137 -77 181 -18 44 -48 103 -66 131 -18 28 -33 55 -33 60
0 5 -18 38 -40 74 -22 36 -40 72 -40 81 0 10 -15 39 -33 67 -28 40 -35 62 -40
120 -6 76 8 109 18 45 10 -59 15 -73 27 -73 12 0 2 138 -12 155 -4 6 -15 100
-25 209 -14 154 -16 201 -6 204 6 2 25 15 41 29 25 20 30 32 30 68 0 24 9 81
19 127 11 46 29 151 40 233 12 83 25 175 30 205 5 30 19 118 30 195 12 77 29
176 37 220 8 44 22 123 30 175 8 52 28 151 44 220 39 173 40 174 45 276 3 56
14 121 29 170 13 43 36 116 50 161 14 44 39 141 56 215 17 73 44 178 61 233
16 55 40 159 54 230 14 72 34 168 46 215 11 47 24 130 29 185 9 106 44 260
111 495 20 69 37 183 58 385 5 44 14 93 20 110 11 26 74 333 127 610 9 50 24
104 32 120 11 21 18 76 22 175 4 89 13 164 23 195 9 28 17 74 17 103 0 35 11
83 34 145 43 113 45 125 50 212 4 57 0 81 -20 132 -22 56 -24 65 -11 90 16 34
34 95 42 144 3 21 25 62 54 100 67 88 121 213 132 305 6 44 19 93 34 120 14
26 25 56 25 67 0 11 18 56 41 99 35 70 40 88 44 161 4 107 27 192 80 302 66
138 101 216 114 257 7 20 24 54 40 75 15 21 37 59 50 85 27 58 74 324 91 523
7 77 18 166 26 198 26 110 15 188 -44 317 -48 103 -89 294 -78 361 16 101 166
487 210 538 25 30 73 126 81 161 4 19 14 51 22 70 13 31 16 33 22 15 5 -11 14
-56 20 -100 7 -44 19 -111 27 -150 59 -290 58 -282 45 -379 -25 -189 -35 -238
-101 -506 -78 -314 -87 -361 -135 -750 -37 -308 -60 -541 -70 -715 -3 -60 -12
-159 -20 -220 -8 -60 -16 -176 -19 -257 -5 -161 -26 -276 -98 -543 -69 -257
-104 -404 -136 -580 -28 -152 -38 -212 -56 -335 -6 -36 -28 -285 -46 -515 -6
-71 -15 -193 -22 -270 -7 -80 -13 -377 -14 -690 -3 -704 -17 -928 -69 -1090
-25 -75 -56 -205 -91 -370 -8 -39 -21 -206 -29 -380 -8 -185 -20 -342 -30
-390 -9 -45 -15 -117 -13 -163 2 -70 -1 -86 -15 -94 -12 -6 -15 -16 -11 -32 3
-12 -7 -57 -22 -101 -36 -103 -36 -145 0 -223 22 -51 29 -81 31 -150 2 -48 11
-166 20 -262 15 -148 16 -194 6 -300 -6 -69 -11 -144 -11 -166 0 -23 -7 -59
-16 -80 -19 -45 -14 -121 12 -194 13 -38 17 -136 25 -635 5 -324 13 -628 18
-675 6 -47 10 -134 10 -195 0 -117 19 -272 48 -395 13 -55 17 -110 16 -205 -3
-203 20 -418 72 -655 14 -64 37 -221 55 -375 6 -44 16 -253 25 -465 8 -212 17
-416 20 -455 20 -244 169 -856 265 -1085 18 -41 49 -122 70 -180 94 -261 115
-314 185 -455 62 -125 75 -161 80 -215 3 -36 10 -92 15 -125 5 -33 12 -87 14
-120 3 -33 17 -150 31 -260 15 -110 30 -256 35 -324 5 -68 21 -174 35 -235 15
-61 28 -121 31 -134 l4 -22 8109 0 8109 0 11 73 c25 161 34 196 71 277 22 47
57 137 80 200 23 63 45 124 50 135 5 11 23 56 40 100 17 44 41 103 54 130 13
28 36 82 51 120 15 39 35 88 45 110 10 22 36 90 59 150 23 61 46 119 51 131 5
13 31 30 67 44 32 13 77 31 100 42 64 28 351 127 413 143 158 39 174 46 217
91 23 24 45 44 51 44 21 0 93 62 105 93 24 56 28 164 12 322 -8 83 -19 176
-24 208 -12 68 -12 68 55 177 28 47 68 119 88 160 21 41 44 89 53 105 121 236
261 524 298 615 15 36 33 79 41 95 7 17 22 55 33 85 10 30 40 109 66 175 26
66 62 167 81 225 19 58 46 134 60 168 14 35 41 107 61 160 19 54 45 124 58
157 12 33 25 69 29 80 4 11 18 47 31 80 25 66 34 89 130 350 75 203 99 268
126 339 11 27 19 55 19 62 0 8 4 22 10 32 5 9 25 64 44 122 20 58 57 170 85
250 27 80 75 226 106 325 31 99 74 234 95 300 21 66 61 197 89 290 28 94 56
184 62 200 13 34 35 107 68 225 40 145 161 636 161 656 0 14 12 71 26 127 25
96 26 110 20 252 -7 153 -22 269 -50 385 -14 62 -28 104 -145 445 -48 137
-123 336 -156 410 -7 17 -28 64 -45 105 -17 41 -35 84 -40 95 -5 11 -27 61
-49 110 -137 317 -452 941 -661 1315 -30 52 -71 127 -93 165 -21 39 -128 250
-237 470 -109 220 -256 513 -328 650 -231 446 -322 625 -469 914 -79 156 -173
338 -210 405 -91 168 -123 227 -178 331 -26 50 -62 117 -80 150 -39 72 -97
182 -155 290 -24 44 -66 123 -93 175 -28 52 -60 111 -72 130 -11 19 -56 104
-99 188 l-78 154 32 156 c25 125 33 199 41 362 15 323 25 362 114 459 69 75
85 108 85 178 0 71 -71 437 -106 548 -88 278 -140 485 -163 650 -16 112 -39
437 -51 709 -6 125 -15 260 -21 300 -22 151 -28 183 -43 254 -9 39 -23 105
-32 145 -64 301 -113 452 -208 645 -15 29 -35 76 -47 105 -60 152 -130 345
-164 447 -20 63 -59 169 -85 235 -80 199 -181 487 -229 655 -17 58 -48 159
-70 225 -21 66 -60 201 -86 300 -68 261 -116 421 -149 496 -13 29 -158 478
-186 574 -37 130 -64 215 -75 240 -12 28 -182 545 -225 685 -41 134 -180 556
-190 575 -22 45 -68 179 -109 315 -24 80 -81 260 -126 400 -45 140 -89 278
-98 305 -114 360 -260 704 -353 835 -29 41 -74 113 -100 160 -54 99 -146 244
-156 248 -5 2 -8 8 -8 14 0 5 -11 24 -24 41 -29 39 -87 142 -123 217 -82 174
-104 219 -127 260 -23 41 -83 173 -138 305 -12 28 -28 66 -36 85 -51 116 -61
152 -51 177 18 49 -68 156 -177 218 -27 16 -67 44 -89 62 -75 60 -193 110
-326 138 -166 35 -354 69 -524 95 -152 24 -164 29 -290 125 -265 203 -422 304
-640 410 -93 45 -219 107 -280 137 -60 30 -157 73 -215 97 -58 23 -148 64
-200 92 -375 194 -661 331 -764 365 -33 10 -101 39 -150 64 -75 37 -97 54
-126 94 -61 87 -141 165 -195 192 -29 14 -97 36 -151 49 -55 14 -108 29 -119
34 -75 32 -72 28 -90 119 -24 122 -61 245 -90 300 -50 95 -330 523 -347 530
-5 2 -8 8 -8 14 0 6 -13 27 -29 47 -16 20 -54 74 -84 120 -33 50 -58 79 -61
70 -2 -8 -12 -90 -21 -184 -9 -93 -20 -199 -25 -235 -28 -208 -43 -297 -50
-315 -5 -11 -12 -35 -15 -53 -4 -18 -13 -45 -21 -62 -8 -16 -16 -48 -18 -72
-1 -24 -12 -63 -24 -87 -12 -25 -22 -50 -22 -57 0 -6 -7 -17 -15 -24 -9 -7
-13 -21 -10 -30 3 -10 -1 -24 -8 -32 -8 -8 -18 -25 -21 -38 -7 -24 -47 -114
-69 -155 -6 -11 -24 -47 -40 -80 -84 -173 -121 -244 -147 -280 -16 -22 -41
-62 -55 -90 -15 -27 -30 -52 -33 -55 -4 -3 -18 -25 -31 -50 -14 -25 -37 -61
-53 -80 -15 -19 -28 -38 -28 -43 0 -5 -7 -15 -15 -23 -8 -9 -15 -24 -15 -34 0
-11 -9 -24 -20 -30 -11 -6 -20 -18 -20 -26 0 -18 -27 -55 -81 -115 -20 -21
-40 -49 -43 -62 -3 -12 -19 -36 -35 -53 -16 -17 -37 -46 -46 -65 -10 -19 -30
-46 -44 -60 -32 -32 -71 -85 -71 -98 0 -5 -6 -11 -14 -14 -7 -3 -41 -43 -75
-89 -34 -45 -66 -88 -71 -95 -6 -7 -10 -15 -10 -17 0 -6 -24 -37 -47 -61 -7
-8 -13 -16 -13 -20 0 -9 -84 -140 -92 -143 -4 -2 -8 -12 -8 -22 0 -10 -4 -21
-9 -24 -5 -3 -15 -30 -21 -58 -7 -29 -25 -77 -41 -106 -16 -29 -29 -59 -29
-67 0 -7 -9 -17 -20 -20 -11 -3 -20 -10 -20 -14 0 -4 -21 -23 -47 -41 -27 -19
-50 -37 -53 -40 -8 -11 -42 -27 -104 -49 -75 -26 -94 -39 -461 -307 -82 -60
-162 -114 -176 -121 -31 -13 -59 0 -59 27 0 17 -7 20 -40 20 -22 0 -40 5 -40
10 0 6 -18 10 -40 10 -22 0 -40 -4 -40 -8 0 -5 -17 -15 -39 -22 -21 -7 -54
-25 -72 -41 -19 -16 -43 -29 -55 -29 -11 0 -25 -5 -31 -11 -8 -8 -17 -7 -34 3
-19 10 -129 98 -149 118 -3 3 -25 18 -50 34 -25 16 -60 39 -78 51 -22 15 -60
67 -110 151 -132 220 -249 381 -366 505 -49 52 -97 107 -106 122 -10 16 -27
35 -39 43 -12 9 -19 20 -16 25 3 5 -2 18 -12 29 -16 17 -18 33 -15 121 2 80 0
106 -13 126 -13 19 -14 28 -5 38 6 8 9 23 5 34 -3 11 -10 71 -16 133 -19 227
-26 277 -39 293 -7 8 -15 39 -17 67 -2 29 -8 55 -13 58 -10 6 -37 123 -56 245
-8 50 -19 110 -24 135 -16 73 -20 174 -8 181 7 5 7 22 -2 58 -7 31 -9 71 -5
102 5 39 4 54 -6 60 -19 11 -20 186 -1 198 7 4 12 21 12 37 -1 255 1 328 10
369 8 35 8 51 1 53 -6 2 -11 21 -11 43 0 24 -5 39 -12 39 -10 0 -10 2 -2 8 8
5 12 60 12 177 0 94 5 207 11 250 5 44 13 115 17 158 8 98 -2 100 -82 14z
m1401 -4497 c3 -5 1 -10 -4 -10 -6 0 -11 5 -11 10 0 6 2 10 4 10 3 0 8 -4 11
-10z m-5 -96 c0 -8 -4 -12 -10 -9 -5 3 -10 10 -10 16 0 5 5 9 10 9 6 0 10 -7
10 -16z m-2 -54 c1 -32 -12 -48 -23 -29 -6 8 12 59 20 59 1 0 2 -13 3 -30z
m-194 -2815 c22 -4 48 -17 62 -32 26 -29 32 -58 10 -50 -8 3 -16 -2 -19 -14
-4 -15 -14 -19 -54 -19 -27 0 -53 -3 -57 -7 -8 -8 -48 -13 -128 -16 -57 -2
-58 -2 -58 25 0 41 47 86 110 108 30 10 64 17 75 15 11 -2 37 -7 59 -10z m96
-200 c5 -3 10 -16 11 -28 1 -20 2 -20 9 3 8 25 8 24 9 -5 2 -57 -18 -103 -59
-135 -54 -43 -94 -53 -155 -39 -61 14 -91 40 -100 86 -3 19 -8 40 -11 48 -3 8
12 21 39 34 56 27 58 27 51 -9 -6 -26 -3 -30 14 -30 12 0 24 5 27 10 3 6 24
10 46 10 32 0 39 3 39 19 0 11 -4 23 -10 26 -5 3 -10 10 -10 15 0 9 83 5 100
-5z m5982 -1447 c11 -9 17 -34 20 -83 2 -41 12 -86 23 -109 22 -46 24 -112 12
-356 -9 -173 -4 -226 41 -445 35 -165 117 -454 168 -590 19 -50 45 -142 59
-205 14 -63 34 -146 45 -185 10 -38 28 -122 40 -185 23 -130 106 -487 139
-600 29 -95 46 -204 61 -372 6 -73 16 -160 21 -193 35 -233 39 -249 83 -330
28 -51 49 -108 60 -158 8 -42 22 -88 31 -100 25 -39 75 -209 75 -258 0 -33 8
-58 30 -92 32 -50 69 -165 100 -309 11 -48 28 -105 39 -127 11 -21 30 -76 42
-121 11 -46 37 -124 56 -174 20 -50 36 -102 37 -114 1 -24 -10 -33 -124 -97
-48 -27 -59 -33 -185 -108 -108 -64 -95 -56 -305 -193 -102 -66 -207 -128
-235 -139 -27 -10 -68 -26 -90 -36 -22 -10 -83 -34 -135 -55 -168 -65 -157
-58 -445 -289 -44 -35 -111 -93 -150 -129 -65 -61 -152 -123 -160 -114 -2 2
-7 157 -10 343 -5 212 -12 376 -21 435 -8 52 -23 158 -34 235 -21 148 -32 213
-85 500 -19 99 -39 224 -46 277 -13 99 -10 118 31 213 55 127 79 189 129 332
84 243 126 395 161 588 17 94 46 253 65 355 19 102 40 214 46 250 13 79 30
160 74 350 18 80 36 167 40 193 3 27 12 66 20 86 7 21 27 112 45 202 17 90 40
211 51 269 27 138 50 280 93 570 44 298 69 811 48 985 -5 44 -7 83 -5 88 6 11
27 9 45 -5z m-6363 -1726 c39 -41 66 -108 55 -137 -6 -13 -15 -16 -43 -11 -20
3 -54 6 -75 6 -37 0 -38 1 -23 18 22 24 21 34 -3 77 -11 20 -20 40 -20 45 0
13 47 13 55 0 3 -5 11 -10 17 -10 6 0 4 8 -5 18 -44 48 -3 42 42 -6z m-230
-62 c-22 -28 -22 -33 -8 -43 9 -7 19 -22 23 -34 6 -18 2 -22 -24 -28 -38 -8
-34 -24 11 -47 38 -20 94 -17 164 7 22 7 57 16 78 19 31 4 37 2 37 -14 0 -11
-9 -24 -20 -30 -12 -6 -25 -22 -30 -35 -8 -22 -12 -23 -42 -14 -53 15 -138 12
-138 -5 0 -8 10 -22 21 -30 l22 -15 -27 -7 c-42 -10 -103 13 -145 55 -48 48
-62 119 -34 177 10 20 21 36 25 36 4 -1 27 11 50 28 51 34 69 25 37 -20z
m-4995 -1472 c-7 -43 -18 -92 -23 -110 -10 -30 -10 -29 -7 17 7 86 30 185 41
173 1 -2 -3 -38 -11 -80z m4746 -1703 c0 -8 -5 -15 -11 -15 -5 0 -9 -8 -8 -17
3 -29 -11 -51 -46 -73 -20 -12 -36 -32 -40 -48 -3 -15 -28 -52 -54 -82 -57
-64 -74 -60 -85 17 -6 47 10 110 42 160 23 37 79 66 112 59 16 -3 32 -1 35 4
10 16 55 12 55 -5z m150 -270 c0 -30 -24 -63 -60 -84 -64 -36 -63 -26 4 53 42
48 56 56 56 31z m-477 -2922 c9 -8 -24 -32 -45 -33 -18 0 -24 20 -11 33 8 9
48 9 56 0z m2312 -1567 c28 -8 76 -28 108 -45 32 -17 63 -31 68 -31 22 0 145
-64 161 -83 13 -17 20 -19 40 -11 49 21 247 4 269 -22 6 -8 22 -14 35 -14 13
0 28 -9 34 -21 9 -15 18 -19 36 -15 15 4 30 0 43 -11 42 -39 51 -43 88 -43
l38 1 -32 14 c-38 16 -38 13 -17 65 9 23 23 40 33 41 9 0 -2 8 -24 18 l-40 18
39 13 c45 14 171 7 193 -12 8 -6 38 -15 68 -19 33 -4 61 -15 74 -28 11 -11 39
-24 61 -27 22 -4 40 -10 40 -15 0 -4 9 -11 20 -14 11 -3 20 -13 20 -21 0 -8 8
-14 19 -14 10 0 24 -7 32 -16 10 -13 10 -17 -2 -25 -8 -5 -21 -9 -30 -9 -9 0
-24 -9 -34 -20 -10 -11 -21 -17 -26 -14 -5 3 -24 2 -43 -1 -25 -5 -35 -13 -38
-30 -4 -21 -1 -23 56 -28 53 -5 64 -3 84 15 19 19 22 19 22 5 0 -19 44 -24 55
-7 3 6 19 10 34 10 15 0 31 4 37 9 5 6 32 7 66 2 44 -6 60 -4 71 7 11 10 20
11 35 3 10 -6 22 -7 26 -4 3 3 6 1 6 -5 0 -6 6 -17 13 -24 18 -20 37 -50 43
-70 4 -10 12 -18 19 -18 7 0 18 -13 25 -30 11 -27 21 -35 43 -31 17 3 5 -17
-13 -22 -11 -3 -20 -13 -20 -22 0 -12 4 -14 16 -7 24 13 59 3 85 -24 13 -14
34 -24 50 -24 21 0 26 -4 22 -18 -2 -10 3 -24 11 -31 10 -9 16 -10 16 -3 0 15
30 4 52 -18 10 -10 14 -26 11 -38 -3 -14 1 -22 16 -27 12 -3 21 -11 21 -17 0
-6 13 -8 29 -6 17 2 30 2 29 -1 -2 -21 4 -31 19 -31 17 0 83 -45 96 -67 4 -7
17 -13 27 -13 11 0 20 -4 20 -8 0 -5 8 -17 18 -28 23 -27 41 -55 48 -76 4 -10
13 -18 20 -18 8 0 14 -7 14 -15 0 -8 6 -12 13 -9 8 3 20 -2 27 -11 7 -8 19
-15 26 -15 8 0 14 -7 14 -15 0 -8 6 -15 13 -15 8 0 22 -9 32 -20 10 -11 24
-20 32 -20 7 0 17 -8 20 -17 4 -10 15 -24 25 -31 10 -7 18 -22 18 -33 0 -16 5
-19 20 -14 14 5 20 2 20 -9 0 -9 8 -16 19 -16 21 0 61 -44 61 -66 0 -7 5 -14
11 -16 5 -2 13 -21 16 -43 4 -32 1 -44 -16 -59 -12 -11 -21 -28 -21 -39 0 -13
-5 -17 -15 -13 -10 4 -15 -1 -15 -15 0 -21 -46 -68 -67 -69 -7 0 -13 -7 -13
-15 0 -8 -5 -15 -10 -15 -6 0 -23 -12 -37 -26 -16 -16 -28 -22 -32 -15 -5 7
-13 3 -24 -9 -9 -11 -24 -20 -32 -20 -8 0 -31 -22 -50 -48 -19 -27 -46 -54
-60 -62 -14 -7 -25 -16 -25 -20 0 -4 -19 -12 -42 -19 -24 -7 -55 -19 -70 -27
-14 -8 -33 -14 -42 -14 -9 0 -19 -7 -22 -15 -4 -8 -12 -15 -20 -15 -8 0 -14
-6 -14 -14 0 -13 -56 -46 -79 -46 -7 0 -21 -9 -33 -20 -12 -11 -29 -20 -37
-20 -29 -1 -102 -39 -132 -70 -17 -16 -35 -28 -39 -25 -13 8 -80 -22 -80 -34
0 -6 -7 -11 -14 -11 -8 0 -33 -26 -55 -57 -39 -53 -40 -57 -24 -75 16 -18 18
-17 57 22 40 38 43 39 93 34 l51 -7 -5 -38 c-4 -30 -2 -39 9 -39 10 0 17 13
21 33 3 20 22 50 53 83 27 27 54 59 60 70 16 27 49 29 67 3 l16 -21 36 22 c25
15 33 26 26 34 -5 6 -11 25 -13 41 -3 26 0 30 25 33 31 4 36 -12 12 -38 -14
-15 -14 -18 0 -30 13 -11 20 -9 40 10 13 12 33 42 45 66 20 44 33 53 45 33 4
-6 16 0 29 15 12 15 29 26 38 26 9 0 19 4 22 9 3 5 24 11 46 13 38 3 40 2 40
-24 0 -22 -9 -35 -40 -56 -21 -15 -39 -33 -40 -39 0 -8 -15 -13 -40 -13 -29 0
-40 -4 -40 -15 0 -21 93 -21 110 0 7 8 20 15 29 15 9 0 36 10 61 22 25 11 55
20 68 19 14 -2 21 2 20 11 -2 7 16 22 39 34 49 25 73 47 73 67 0 16 33 30 63
27 10 -1 17 6 17 16 0 16 1 16 20 -1 19 -17 21 -17 38 -1 18 15 19 15 30 -9
20 -43 15 -74 -13 -85 -14 -5 -25 -17 -25 -28 0 -12 -17 -28 -49 -45 -27 -15
-51 -34 -55 -42 -3 -8 -18 -15 -33 -15 -21 0 -33 -8 -46 -31 -10 -18 -20 -29
-23 -27 -2 3 -24 -12 -47 -33 -23 -22 -50 -42 -59 -45 -10 -3 -18 -10 -18 -15
0 -5 -9 -9 -20 -9 -11 0 -20 -3 -20 -7 0 -5 -18 -19 -40 -33 -22 -13 -40 -30
-40 -38 0 -7 -4 -10 -10 -7 -13 8 -60 -18 -89 -49 -14 -14 -29 -26 -36 -26 -6
0 -18 -9 -27 -19 -9 -11 -37 -31 -62 -46 -25 -15 -46 -30 -46 -35 0 -4 -7 -11
-15 -14 -10 -4 -19 2 -25 17 -8 20 -9 20 -9 -8 -1 -22 -8 -33 -28 -42 -15 -7
-33 -13 -41 -13 -8 0 -28 -10 -45 -22 -41 -30 -207 -40 -235 -15 -16 15 -22
13 -71 -12 -30 -15 -58 -37 -62 -48 -4 -11 -15 -23 -25 -27 -34 -13 -149 -95
-162 -115 -7 -12 -19 -21 -28 -21 -15 0 -65 -31 -92 -57 -7 -7 -17 -13 -21
-13 -5 0 -28 -16 -52 -35 -24 -19 -52 -35 -61 -35 -10 0 -18 -4 -18 -10 0 -5
-6 -10 -13 -10 -18 0 -86 -52 -87 -66 0 -6 -13 -17 -30 -24 -16 -7 -56 -39
-89 -71 -32 -32 -61 -59 -64 -59 -3 0 -30 -24 -60 -52 -65 -64 -115 -108 -121
-108 -3 0 -25 -13 -49 -30 -25 -16 -50 -30 -56 -30 -6 0 -11 -4 -11 -9 0 -21
-140 -48 -186 -37 -17 5 -24 12 -20 22 3 8 -14 40 -41 75 -36 48 -50 60 -66
55 -25 -6 -160 15 -168 26 -9 13 -230 13 -238 0 -3 -6 -20 -13 -36 -17 -28 -6
-116 -36 -123 -41 -2 -1 5 -11 15 -22 10 -10 26 -29 36 -41 16 -20 16 -22 0
-28 -30 -12 -149 -9 -174 4 -13 7 -87 16 -164 22 -116 7 -144 6 -163 -6 -12
-7 -20 -18 -17 -23 4 -6 1 -10 -4 -10 -6 0 -11 7 -11 15 0 18 -12 19 -27 4 -7
-7 -33 -7 -87 0 -54 8 -83 8 -97 1 -11 -6 -25 -8 -31 -4 -7 4 -8 3 -4 -5 10
-16 -44 -3 -62 16 -18 18 -26 17 -48 -8 -11 -12 -26 -18 -38 -15 -11 3 -26 1
-32 -5 -7 -6 -38 -12 -70 -14 -31 -2 -60 -9 -64 -15 -12 -19 -59 -3 -70 23 -7
17 -9 18 -9 5 -1 -10 -8 -18 -17 -18 -11 0 -15 6 -11 20 3 14 -4 27 -24 44
-16 14 -29 31 -30 38 0 10 -2 10 -6 0 -9 -23 -43 39 -43 79 0 21 7 42 15 49 9
7 15 20 13 29 -1 9 2 18 7 21 12 5 41 29 66 52 20 18 150 58 192 58 41 0 149
32 175 51 13 10 36 21 53 24 36 8 169 -14 169 -29 0 -6 5 -5 12 2 7 7 25 12
40 12 16 0 43 7 59 16 17 8 38 13 47 9 10 -3 55 -6 101 -6 56 0 93 -5 113 -15
16 -9 27 -18 24 -21 -9 -9 14 -43 29 -43 18 0 20 37 3 42 -6 2 -9 11 -6 20 5
12 29 17 102 23 98 7 141 1 130 -17 -5 -8 8 -9 40 -6 35 4 46 2 46 -8 0 -10
14 -14 50 -14 42 0 50 3 50 19 0 14 12 21 58 30 31 6 82 13 112 16 83 6 140
17 146 26 3 5 17 9 31 9 28 0 93 36 93 51 0 5 8 9 18 9 21 0 82 51 82 68 0 7
4 12 9 12 5 0 12 15 15 34 4 19 13 39 21 46 19 16 19 40 0 40 -8 0 -15 -4 -15
-10 0 -5 -10 -19 -22 -30 -37 -35 -206 -160 -217 -160 -5 0 -11 -5 -13 -12 -3
-8 -32 -12 -89 -13 l-84 0 -3 49 c-5 77 -21 84 -168 81 -78 -3 -130 -8 -144
-17 -18 -10 -24 -10 -27 -1 -3 7 -22 17 -44 23 -22 6 -48 19 -57 28 -31 31
-72 42 -152 42 -89 0 -111 6 -103 26 3 9 -2 14 -17 14 -15 0 -20 -5 -17 -14 5
-12 -2 -14 -31 -10 -68 9 -82 14 -82 29 0 8 -7 15 -15 15 -9 0 -15 -9 -15 -22
0 -20 -3 -21 -95 -15 -52 4 -97 3 -99 -2 -3 -5 -19 -11 -36 -14 -17 -4 -40
-16 -52 -27 -23 -21 -48 -26 -63 -11 -9 8 -90 18 -205 24 -25 2 -59 10 -77 20
-39 21 -72 22 -98 3 -28 -19 -121 -26 -177 -13 -40 9 -51 8 -65 -5 -12 -11
-44 -17 -100 -20 -72 -3 -84 -1 -96 16 -14 19 -15 19 -40 -7 -20 -22 -26 -25
-31 -12 -3 8 -21 25 -41 36 -19 12 -35 27 -35 35 0 8 -6 14 -13 14 -7 0 -17
10 -22 23 -7 15 -17 21 -33 19 -23 -3 -23 -2 -17 45 8 55 30 88 41 60 7 -20
30 -22 37 -4 3 7 6 5 6 -5 1 -10 6 -18 11 -18 15 0 12 38 -2 43 -7 2 24 2 70
-1 59 -3 82 -1 82 7 0 8 8 10 20 6 11 -3 30 1 45 11 14 9 28 14 32 11 3 -4 20
1 37 10 59 30 66 33 86 33 11 0 20 5 20 10 0 6 8 10 18 10 23 0 87 21 237 77
44 17 116 38 160 48 44 10 88 22 97 27 17 8 35 12 118 23 73 10 90 15 90 26 0
5 11 22 24 36 21 22 35 27 100 31 58 3 76 8 76 19 0 11 7 14 25 11 33 -7 32 6
-5 39 -33 29 -38 43 -16 43 7 0 16 8 18 18 5 17 11 18 74 10 38 -5 73 -14 79
-19 21 -21 35 -9 35 34 0 31 -3 38 -10 27 -5 -8 -10 -12 -11 -7 -1 4 -3 12 -4
17 -1 6 -3 17 -4 25 -2 24 -31 17 -41 -11 -6 -14 -14 -23 -19 -20 -5 3 -25 -1
-45 -9 l-36 -15 0 42 c-1 40 -2 42 -15 23 -8 -11 -18 -25 -23 -31 -5 -6 -13
-20 -16 -32 -4 -12 -12 -22 -17 -22 -5 0 -9 -16 -9 -35 l0 -36 -37 7 c-21 4
-44 13 -51 21 -7 7 -19 13 -26 13 -8 0 -19 7 -26 15 -7 9 -15 13 -18 10 -3 -2
-22 5 -42 16 -45 25 -72 22 -80 -9 -4 -18 -22 -31 -70 -51 -37 -16 -66 -35
-68 -44 -3 -13 -16 -17 -60 -19 -93 -3 -96 -3 -117 -14 -11 -6 -89 -17 -173
-24 -102 -9 -156 -18 -163 -27 -6 -7 -17 -13 -24 -13 -8 0 -26 -6 -42 -14 -35
-18 -129 -46 -154 -46 -10 0 -47 -13 -81 -29 -35 -16 -79 -31 -98 -34 -19 -3
-50 -9 -67 -13 -28 -5 -33 -4 -33 12 0 15 -2 16 -9 5 -7 -11 -15 -11 -45 -1
-46 15 -66 35 -66 65 0 28 -30 95 -42 95 -4 0 -8 9 -8 20 0 11 -4 20 -10 20
-5 0 -18 20 -29 45 -11 25 -25 45 -30 45 -6 0 -11 14 -11 30 0 17 4 30 9 30 9
0 27 80 24 108 0 6 5 12 13 12 7 0 16 11 20 25 3 14 9 25 13 25 4 0 26 16 49
35 l41 36 -20 20 c-20 20 -20 34 4 90 11 26 119 89 152 89 8 0 15 4 15 9 0 5
37 9 83 9 80 0 184 13 220 27 9 4 24 2 31 -4 21 -18 154 4 180 30 6 5 27 9 47
9 22 0 39 6 42 14 3 7 23 16 45 20 23 3 47 12 54 19 7 8 18 12 25 10 6 -2 28
5 49 16 21 12 44 21 51 21 10 0 144 40 193 58 8 3 21 4 28 3 6 -1 12 3 12 8 0
6 17 14 38 17 23 3 52 18 70 35 17 16 38 29 46 29 9 0 26 10 38 22 14 14 34
22 55 22 21 0 33 5 33 13 0 8 10 17 23 22 13 5 29 16 36 25 7 9 19 16 26 16
19 0 57 22 88 52 l28 26 -23 4 -23 3 21 19 c12 10 34 29 49 42 36 33 165 77
182 62 9 -7 13 -7 13 1 0 6 6 11 14 11 21 0 41 29 29 41 -12 12 5 56 25 64 17
6 15 -20 -3 -35 -8 -7 -12 -16 -9 -21 9 -15 24 -10 24 7 0 12 5 14 18 9 34
-15 60 -17 66 -6 4 6 0 13 -8 16 -9 3 -23 7 -31 10 -14 4 -14 8 -1 34 8 15 23
31 33 35 29 10 67 34 78 49 5 7 28 18 50 24 64 18 108 37 127 56 10 9 30 17
46 17 15 1 38 7 51 14 14 8 31 12 38 9 7 -3 13 0 13 6 0 6 10 11 23 12 31 1
90 23 94 36 6 17 -23 23 -59 13 -18 -6 -56 -11 -85 -12 -29 -1 -53 -5 -53 -9
0 -4 -16 -10 -36 -13 -31 -6 -144 -61 -206 -100 -13 -7 -41 -19 -63 -26 -22
-7 -44 -16 -50 -21 -5 -5 -17 -9 -27 -9 -10 0 -18 -4 -18 -10 0 -5 -5 -10 -10
-10 -6 0 -37 -18 -69 -40 -43 -29 -69 -40 -96 -40 -21 0 -46 -6 -54 -14 -9 -7
-54 -28 -101 -46 -47 -17 -105 -45 -129 -61 -25 -16 -53 -29 -63 -29 -10 0
-18 -4 -18 -10 0 -5 -8 -10 -19 -10 -10 0 -30 -9 -44 -20 -14 -11 -32 -20 -40
-20 -9 0 -29 -11 -45 -25 -17 -14 -41 -25 -55 -25 -25 0 -85 -29 -117 -56 -8
-7 -38 -15 -65 -18 -56 -5 -115 -24 -115 -36 0 -4 -12 -10 -27 -13 -16 -4 -44
-16 -63 -29 -36 -23 -146 -56 -189 -57 -13 -1 -40 -9 -60 -20 -61 -32 -110
-40 -286 -47 -210 -8 -194 -8 -290 1 -132 13 -216 69 -278 184 -32 59 -31 75
9 85 15 4 40 16 55 27 27 19 123 58 209 85 25 8 79 17 120 21 41 3 78 10 81
15 10 15 80 22 88 9 9 -14 7 -79 -3 -88 -12 -13 -6 -23 15 -23 12 0 23 8 26
20 3 11 10 20 15 20 6 0 19 11 30 25 23 29 43 32 57 8 9 -15 10 -14 11 10 0
23 3 27 19 22 28 -8 86 19 106 49 10 14 26 26 36 26 11 0 19 3 19 8 0 4 5 14
10 22 8 12 17 7 50 -30 33 -37 42 -42 50 -30 6 8 8 24 4 35 -15 52 -15 67 0
90 9 14 23 25 32 25 23 0 74 42 74 61 0 10 -7 19 -16 21 -12 2 -8 11 17 36 38
39 49 33 56 -32 3 -26 10 -49 14 -52 5 -3 9 -24 9 -47 0 -28 3 -37 9 -28 13
20 12 129 -2 174 -12 44 -2 57 45 57 26 0 27 -1 22 -57 l-5 -58 16 34 c8 18
15 44 15 58 0 14 13 38 30 55 27 26 36 30 67 25 20 -4 40 -12 44 -19 6 -10 13
-9 31 1 14 7 35 14 49 16 13 2 39 8 57 13 18 6 48 8 67 5 19 -3 40 -1 47 5 7
5 32 13 56 17 23 4 49 13 56 21 8 8 22 14 30 14 9 0 33 11 54 24 46 29 102 43
111 27 8 -12 81 6 81 21 0 4 7 8 15 8 8 0 15 4 15 8 0 5 18 15 40 22 22 7 47
21 56 32 10 10 20 18 24 18 13 0 70 57 70 69 0 6 7 11 15 11 17 0 18 2 9 24
-3 9 -10 13 -15 10 -5 -3 -18 -3 -28 1 -25 8 -17 41 12 51 12 4 31 10 42 14
34 13 137 11 190 -4z m245 -42 c0 -2 -11 -4 -25 -4 -14 0 -25 4 -25 9 0 4 11
6 25 3 14 -2 25 -6 25 -8z m510 -64 c0 -5 18 -13 40 -16 26 -4 40 -12 40 -21
0 -11 -7 -14 -22 -9 -13 3 -31 6 -40 6 -10 0 -18 5 -18 11 0 7 -8 18 -17 25
-17 13 -17 13 0 14 9 0 17 -4 17 -10z m-2840 -1311 c12 -6 10 -8 -8 -9 -13 0
-31 7 -40 16 -15 15 -14 16 8 9 14 -4 32 -11 40 -16z m-75 -19 c9 0 14 -4 11
-9 -3 -5 1 -11 9 -15 8 -3 15 -10 15 -16 0 -15 -141 -5 -151 12 -6 9 -9 7 -9
-9 0 -28 -68 -62 -82 -41 -7 11 -12 5 -10 -13 2 -10 -72 -5 -84 6 -16 14 2 45
26 45 10 0 31 5 47 12 15 7 33 12 38 13 33 4 83 19 99 31 16 11 24 11 47 -2
15 -7 35 -14 44 -14z m4745 -464 c0 -18 -15 -36 -30 -36 -22 0 -34 15 -25 30
6 9 55 15 55 6z m-4481 -906 l21 -40 -23 0 c-12 0 -29 6 -38 13 -14 11 -15 18
-4 55 8 22 23 13 44 -28z m3611 -51 c0 -6 7 -8 15 -5 11 4 19 -3 26 -21 15
-41 -16 -112 -57 -129 -26 -11 -33 -20 -36 -46 -2 -25 -9 -33 -32 -39 -15 -4
-35 -17 -42 -28 -27 -38 -41 -15 -46 77 -5 91 -1 123 12 102 11 -18 30 -2 30
25 0 18 11 29 53 49 57 28 77 32 77 15z m134 -24 c3 -9 0 -15 -9 -15 -8 0 -15
7 -15 15 0 8 4 15 9 15 5 0 11 -7 15 -15z m-371 -138 c32 2 43 -26 32 -83 -7
-41 -19 -36 -33 16 l-10 35 -1 -42 c-1 -30 -5 -43 -15 -43 -13 0 -26 -26 -41
-77 -4 -15 -14 -23 -29 -23 -42 0 -86 -21 -86 -41 0 -10 -6 -19 -14 -19 -8 0
-18 -9 -21 -20 -3 -11 -13 -20 -21 -20 -8 0 -14 -9 -14 -20 0 -11 -4 -20 -9
-20 -5 0 -11 -12 -14 -27 -6 -28 -89 -134 -111 -142 -6 -2 -13 -7 -16 -10 -16
-20 -47 -27 -73 -19 -30 11 -57 -3 -57 -28 0 -9 -10 -14 -27 -13 -16 0 -22 3
-15 6 6 2 12 16 12 29 0 21 -4 24 -40 24 -22 0 -40 -4 -40 -10 0 -5 -7 -10
-15 -10 -8 0 -20 -9 -27 -20 -7 -11 -21 -20 -31 -20 -9 0 -52 -9 -95 -21 l-77
-20 -16 20 c-10 12 -27 21 -38 21 -12 0 -21 6 -21 14 0 8 -5 16 -12 18 -15 5
-1 28 18 28 8 0 23 8 33 18 37 33 47 39 84 53 20 7 37 17 37 21 0 4 6 8 14 8
20 0 73 30 109 62 17 15 33 25 35 23 3 -2 14 7 25 21 13 17 26 24 38 21 13 -4
19 0 19 11 1 10 19 31 40 47 21 17 39 34 40 39 0 11 60 66 72 66 4 0 8 7 8 15
0 10 10 15 30 15 17 0 30 3 30 8 0 15 70 54 86 48 9 -3 34 -1 56 5 48 13 70 0
51 -30 -8 -13 -8 -30 0 -64 6 -26 13 -47 17 -47 9 0 50 57 50 70 0 5 6 10 14
10 10 0 16 22 22 83 5 56 9 74 14 57 5 -20 12 -25 33 -23z m-2948 -427 c3 -5
1 -10 -4 -10 -6 0 -11 5 -11 10 0 6 2 10 4 10 3 0 8 -4 11 -10z m1465 -186 c7
-8 19 -14 26 -14 9 0 14 -10 12 -28 -1 -15 1 -33 5 -39 13 -20 -4 -92 -23 -98
-9 -3 -22 -16 -28 -29 -9 -21 -16 -24 -52 -19 -32 5 -55 -1 -113 -27 -39 -19
-74 -36 -77 -40 -6 -8 -168 -30 -277 -37 -153 -10 -202 9 -223 89 -10 35 -9
43 4 50 9 5 16 19 16 32 0 45 29 60 156 80 65 11 124 22 129 26 6 3 30 12 55
19 25 7 55 17 68 22 13 5 37 9 55 10 18 0 41 4 52 9 11 4 61 8 112 8 68 1 95
-3 103 -14z m182 -81 c21 -9 37 -22 35 -27 -6 -18 -43 -18 -57 -1 -7 8 -18 15
-25 15 -7 0 -15 7 -19 15 -7 20 17 19 66 -2z m-10796 -540 c3 -10 13 -34 24
-54 10 -19 22 -52 25 -73 8 -38 31 -58 44 -38 3 6 29 18 56 27 27 10 63 28 80
40 16 13 43 27 59 31 31 7 134 -13 153 -31 12 -13 51 -12 183 0 47 5 89 8 93
7 5 -2 81 -5 169 -7 143 -4 163 -6 201 -27 40 -22 42 -26 45 -73 3 -48 4 -51
45 -68 79 -33 75 -23 93 -248 8 -112 19 -240 22 -285 l8 -81 -38 -17 c-21 -9
-47 -16 -58 -16 -18 0 -20 -5 -14 -42 3 -24 10 -55 16 -71 12 -30 0 -52 -33
-62 -32 -10 -23 -35 14 -36 17 -1 61 -8 97 -17 54 -14 66 -21 68 -39 2 -13 8
-23 13 -23 12 0 12 -47 -1 -55 -14 -9 -12 -28 3 -22 9 3 12 -18 14 -82 1 -47
-1 -78 -5 -68 -6 15 -10 13 -27 -15 -27 -45 -25 -220 3 -257 27 -36 39 -36 58
0 11 22 15 46 11 78 -3 29 0 56 9 73 15 30 44 38 44 13 0 -8 5 -15 10 -15 6 0
10 12 10 26 0 28 37 104 58 117 18 12 15 35 -5 40 -10 3 -1 5 20 6 25 1 45 -6
60 -19 16 -15 29 -19 50 -14 16 3 43 3 62 0 29 -6 35 -13 53 -59 11 -28 26
-73 32 -99 7 -27 17 -48 21 -48 5 0 9 -5 9 -12 0 -6 6 -19 13 -27 16 -19 37
-108 37 -159 0 -20 7 -48 15 -62 33 -59 36 -72 24 -127 -9 -41 -16 -53 -31
-53 -21 0 -38 -32 -20 -38 7 -2 12 -22 12 -44 0 -35 -6 -46 -42 -79 -31 -28
-38 -39 -25 -39 9 0 17 -4 17 -10 0 -5 -18 -10 -39 -10 -39 0 -40 1 -43 38
l-3 37 -14 -27 c-16 -32 -29 -35 -47 -10 -13 16 -13 16 -14 0 0 -15 -10 -18
-60 -18 -56 0 -63 3 -98 38 -48 48 -85 64 -128 56 -26 -5 -34 -11 -34 -28 1
-20 2 -20 14 -3 7 9 18 17 25 17 14 0 14 -43 0 -57 -9 -9 -4 -18 17 -37 35
-31 39 -31 64 -6 32 32 43 25 37 -22 -2 -24 -3 -37 0 -30 6 17 71 15 89 -2 16
-16 19 -86 4 -86 -5 0 -10 -9 -10 -20 0 -17 -5 -19 -32 -14 -18 4 -38 13 -44
21 -10 11 -13 4 -16 -32 -2 -26 0 -49 4 -51 5 -3 8 -19 8 -35 0 -27 3 -30 23
-24 16 5 18 4 8 -3 -12 -9 -12 -14 3 -37 10 -15 15 -34 12 -42 -4 -9 1 -24 10
-34 14 -16 14 -18 -6 -29 -12 -6 -23 -10 -24 -8 -2 2 -8 12 -14 23 -11 19 -11
18 -12 -7 0 -17 -5 -28 -14 -28 -18 0 -26 -83 -13 -124 12 -36 -10 -138 -46
-214 -8 -17 -8 -28 1 -43 7 -10 8 -19 4 -19 -5 0 -17 -17 -28 -37 -10 -21 -22
-40 -25 -43 -4 -3 -9 -15 -13 -27 -4 -13 -12 -23 -17 -23 -5 0 -9 -9 -9 -20 0
-18 -2 -18 -40 -5 -22 8 -40 10 -40 5 0 -6 5 -10 10 -10 7 0 8 -13 4 -36 -4
-22 -2 -39 4 -43 5 -3 13 -23 17 -44 7 -33 5 -37 -14 -37 -14 0 -21 -6 -21
-20 0 -17 -5 -19 -32 -13 -18 3 -37 9 -42 14 -9 8 -33 2 -54 -14 -10 -8 -9
-14 4 -28 10 -11 12 -19 6 -19 -7 0 -12 -16 -12 -39 0 -22 -5 -41 -11 -43 -8
-3 -7 -14 5 -36 9 -17 15 -35 14 -39 0 -4 4 -21 10 -36 7 -16 12 -33 12 -38 0
-5 5 -9 10 -9 6 0 10 -18 10 -40 0 -43 14 -54 23 -19 7 24 29 16 25 -9 -1 -10
4 -27 11 -40 10 -19 10 -36 -3 -95 -9 -40 -18 -89 -21 -109 -3 -21 -9 -38 -13
-38 -4 0 -23 18 -41 40 -28 34 -57 53 -133 88 -4 2 -5 -10 -2 -27 l6 -30 -38
11 c-22 5 -44 14 -50 19 -14 12 -54 -47 -54 -79 0 -12 -9 -26 -20 -32 -17 -9
-22 -7 -32 15 -7 16 -19 25 -35 25 -12 0 -23 -4 -23 -9 0 -5 -10 -13 -21 -16
-16 -5 -27 0 -44 19 -14 16 -38 29 -59 33 -31 5 -36 10 -36 32 -1 24 -2 24
-14 9 -17 -23 -33 -23 -46 1 -14 28 -2 51 31 58 16 3 29 9 29 13 0 4 8 10 19
13 16 4 18 13 16 66 -2 33 -6 70 -10 81 -5 14 -2 20 9 20 13 0 16 12 16 53 0
28 -4 67 -10 86 -7 26 -6 41 7 64 11 22 12 32 4 35 -6 2 -11 23 -11 46 0 34
-14 100 -25 114 -1 1 -23 -19 -49 -44 -36 -37 -46 -54 -46 -80 0 -24 -5 -34
-15 -34 -10 0 -15 -10 -15 -34 0 -18 -11 -64 -25 -100 -29 -76 -31 -106 -10
-106 21 0 19 -22 -5 -43 -44 -37 -73 -10 -45 42 l16 31 -31 6 c-28 6 -43 24
-20 24 13 0 13 46 -1 72 -8 15 -8 22 0 28 16 9 3 40 -18 40 -9 0 -31 9 -49 20
-18 11 -39 20 -48 20 -10 0 -14 6 -10 18 2 9 8 36 11 60 4 23 10 42 14 42 10
0 121 105 121 115 0 4 17 33 38 65 29 43 41 72 46 115 3 32 16 79 27 106 13
29 18 56 14 66 -4 10 -9 47 -11 83 -3 51 -1 68 11 76 11 8 18 35 22 82 5 65 4
72 -18 94 -13 13 -31 44 -40 69 -13 36 -21 45 -43 47 -25 3 -27 6 -21 30 4 15
9 41 10 57 1 17 6 44 10 61 4 20 3 34 -4 38 -6 4 -11 18 -11 32 0 18 -5 24
-22 24 -17 0 -32 -15 -56 -54 -19 -30 -40 -57 -48 -60 -8 -3 -14 -19 -14 -41
0 -28 4 -35 19 -35 24 0 38 19 21 30 -8 5 -7 9 5 14 28 10 32 7 49 -34 20 -50
20 -60 1 -60 -8 0 -15 -4 -15 -10 0 -5 18 -10 40 -10 29 0 40 -4 40 -15 0 -8
-6 -15 -14 -15 -7 0 -19 -7 -26 -15 -7 -8 -19 -15 -28 -15 -8 0 -24 -7 -34
-17 -17 -15 -19 -15 -38 2 -11 10 -20 23 -20 30 0 6 -18 17 -40 24 l-40 12 0
56 c0 65 -10 66 -15 2 -1 -24 -8 -45 -14 -47 -18 -6 -12 59 9 107 11 24 20 49
20 57 0 8 7 14 15 14 19 0 19 5 -2 40 -14 24 -15 35 -5 67 6 21 14 76 17 123
4 46 11 93 17 103 5 10 30 28 56 39 30 13 41 22 32 26 -33 11 -50 36 -50 72 0
35 3 39 40 54 34 13 40 20 40 45 0 22 -6 30 -22 34 -13 4 -32 13 -43 21 -20
14 -20 15 7 43 33 34 51 100 25 90 -10 -4 -18 0 -21 11 -7 21 8 88 23 106 17
20 123 57 169 60 22 1 46 8 55 16 32 31 56 48 75 54 11 4 26 13 32 21 7 8 27
15 46 15 18 0 39 6 46 13 7 8 19 12 25 10 7 -3 33 9 58 26 25 17 50 31 55 31
5 0 15 6 22 13 7 7 25 20 41 30 15 10 27 26 27 37 0 17 -5 19 -25 14 -17 -4
-27 -2 -30 8 -4 10 -20 1 -55 -34 -33 -32 -58 -48 -75 -48 -14 0 -25 -4 -25
-10 0 -5 -5 -10 -11 -10 -6 0 -9 9 -6 20 5 18 0 20 -58 20 -48 0 -68 -5 -89
-21 -18 -14 -35 -19 -50 -15 -19 5 -24 14 -30 58 -3 29 -6 71 -6 93 0 22 -5
47 -11 55 -7 11 -9 -12 -4 -80 13 -168 15 -155 -25 -158 -19 -2 -42 -9 -50
-16 -38 -30 -227 -90 -290 -91 -18 0 -30 -14 -30 -36 0 -13 9 -15 41 -13 38 3
41 1 35 -19 -3 -12 -6 -30 -6 -40 0 -15 -2 -16 -14 -5 -8 7 -10 15 -5 16 5 2
9 8 9 13 0 4 -7 6 -16 2 -12 -4 -15 -14 -11 -39 3 -19 2 -34 -4 -34 -5 0 -9 6
-9 13 0 9 -3 8 -9 -2 -6 -9 -11 -10 -15 -2 -5 8 -15 7 -34 -3 -15 -8 -63 -31
-108 -53 -62 -29 -84 -45 -92 -66 -14 -36 -53 -34 -63 3 -5 17 -7 19 -8 7 -2
-32 -21 -7 -21 28 0 19 -5 37 -11 41 -6 3 -8 15 -6 26 9 34 -2 49 -24 35 -10
-6 -19 -17 -19 -24 0 -14 -27 -43 -41 -43 -5 0 -9 13 -9 29 0 37 -11 45 -44
30 -14 -7 -28 -10 -31 -7 -3 3 -8 29 -12 57 -4 34 -9 48 -14 39 -5 -7 -6 -21
-3 -31 11 -35 13 -77 4 -82 -9 -6 -19 24 -19 55 0 8 -5 83 -11 165 -20 244
-21 286 -9 246 13 -42 17 -37 23 25 7 71 17 114 27 114 5 0 16 -15 26 -32 l18
-33 3 42 c2 22 -1 56 -6 75 l-10 33 -7 -33 c-4 -18 -11 -35 -16 -38 -18 -11
-41 48 -51 133 -16 135 -16 147 5 151 36 7 46 -4 37 -44 -6 -27 -5 -45 6 -65
8 -16 14 -38 14 -51 0 -15 3 -19 10 -12 8 8 8 31 1 75 -13 85 -36 367 -36 449
l0 64 33 3 c32 3 32 2 34 -45 1 -41 2 -42 6 -12 2 19 -1 59 -8 87 -6 29 -8 58
-3 65 4 7 6 23 4 36 -1 14 3 22 13 22 8 0 19 8 24 17 9 15 17 15 113 -2 l103
-18 14 22 c17 26 31 27 38 4z m1332 -136 c6 -7 14 -35 17 -62 11 -86 -38 -116
-70 -43 -13 31 -14 32 -16 8 -1 -23 -2 -23 -9 5 -12 49 -11 75 4 75 7 0 19 7
26 15 15 18 34 19 48 2z m249 -113 c-9 -9 -28 6 -21 18 4 6 10 6 17 -1 6 -6 8
-13 4 -17z m-142 -36 c9 -37 52 -562 47 -576 -3 -7 -12 -12 -21 -10 -12 2 -18
20 -23 68 -15 124 -45 525 -41 533 9 15 33 6 38 -15z m219 -40 c3 -18 8 -60
11 -93 3 -33 14 -143 25 -245 13 -130 16 -188 8 -197 -18 -22 -25 -5 -32 74
-4 43 -16 165 -27 272 -11 107 -18 200 -15 208 9 24 25 14 30 -19z m-2344
-102 c0 -11 5 -66 10 -121 6 -54 6 -103 2 -107 -10 -10 -62 13 -62 27 0 6 5
17 10 25 6 10 4 22 -6 38 -12 18 -13 27 -5 35 16 16 14 48 -5 68 -15 16 -14
20 2 42 22 29 54 25 54 -7z m230 -82 c0 -21 -4 -33 -10 -29 -5 3 -10 19 -10
36 0 16 5 29 10 29 6 0 10 -16 10 -36z m-170 -257 c0 -18 -2 -19 -10 -7 -13
20 -13 43 0 35 6 -3 10 -16 10 -28z m-41 4 c10 -6 16 -35 19 -90 4 -77 4 -81
-17 -81 -11 0 -24 0 -28 0 -9 0 -12 20 -17 91 -1 25 -6 51 -10 57 -16 26 22
43 53 23z m2346 -155 c9 -74 3 -130 -15 -133 -8 -2 -25 5 -38 15 -19 15 -25
31 -29 81 -6 58 -4 65 17 81 38 29 58 15 65 -44z m-274 17 c16 -42 11 -139 -8
-158 -16 -16 -18 -16 -35 5 -22 27 -27 175 -5 183 20 7 38 -4 48 -30z m-78
-80 c6 -52 0 -73 -14 -52 -11 18 -12 99 0 99 4 0 11 -21 14 -47z m-1906 -5
c-3 -8 -6 -5 -6 6 -1 11 2 17 5 13 3 -3 4 -12 1 -19z m-62 -27 c3 -6 8 -43 11
-83 5 -70 4 -74 -21 -91 -15 -11 -29 -17 -31 -14 -3 2 -6 36 -7 73 -2 38 -6
75 -11 83 -6 9 -3 18 9 28 22 15 41 17 50 4z m25 -283 c0 -7 5 -63 11 -126 10
-98 9 -116 -4 -129 -13 -13 -17 -13 -35 5 -16 16 -19 29 -15 61 3 25 1 46 -6
55 -9 11 -9 19 1 35 10 17 10 25 0 41 -16 27 -15 40 6 56 21 17 42 18 42 2z
m740 -247 c0 -23 -16 -36 -25 -21 -9 14 1 40 15 40 5 0 10 -9 10 -19z m1358
-688 c2 -9 -7 -13 -27 -13 -30 0 -39 9 -24 24 11 10 46 3 51 -11z m195 -50
c-13 -2 -33 -2 -45 0 -13 2 -3 4 22 4 25 0 35 -2 23 -4z m-9 -164 c-7 -12 -31
-11 -39 1 -4 6 -1 18 6 26 12 14 14 14 26 -2 7 -9 10 -21 7 -25z m646 -425 c0
-8 -4 -12 -10 -9 -5 3 -10 13 -10 21 0 8 5 12 10 9 6 -3 10 -13 10 -21z m23
-34 c3 -11 1 -20 -4 -20 -5 0 -9 9 -9 20 0 11 2 20 4 20 2 0 6 -9 9 -20z
m-371 -92 c-8 -8 -9 -4 -5 13 4 13 8 18 11 10 2 -7 -1 -18 -6 -23z m-1612 -7
c0 -6 -4 -13 -10 -16 -5 -3 -10 1 -10 9 0 9 5 16 10 16 6 0 10 -4 10 -9z
m1690 -59 c0 -8 -6 -12 -14 -9 -8 3 -17 1 -20 -6 -2 -7 -5 2 -5 19 -1 17 2 34
6 38 9 9 33 -22 33 -42z m47 -24 c-3 -8 -6 -5 -6 6 -1 11 2 17 5 13 3 -3 4
-12 1 -19z m-121 -35 c-11 -11 -17 4 -9 23 7 18 8 18 11 1 2 -10 1 -21 -2 -24z
m74 7 c0 -5 -5 -10 -11 -10 -5 0 -7 5 -4 10 3 6 8 10 11 10 2 0 4 -4 4 -10z
m-30 -57 c0 -13 -3 -13 -15 -3 -8 7 -15 16 -15 21 0 5 7 6 15 3 8 -4 15 -13
15 -21z m-785 -457 c27 -25 27 -25 6 -38 -12 -7 -21 -18 -21 -25 0 -15 -16
-17 -25 -3 -3 6 -1 10 5 10 6 0 8 14 4 40 -4 22 -4 40 -1 40 3 0 18 -11 32
-24z m458 -48 c22 -31 27 -47 27 -99 0 -34 5 -90 11 -124 9 -52 7 -88 -11
-216 -19 -131 -21 -178 -16 -319 9 -223 47 -445 106 -614 33 -98 47 -85 -158
-141 -29 -8 -57 -15 -63 -15 -14 0 -28 43 -39 119 l-9 66 33 30 c74 65 86 178
29 258 -17 23 -53 59 -80 80 l-51 38 -8 77 c-4 42 -9 151 -9 242 -1 91 -5 189
-9 218 -8 48 -6 59 28 132 34 75 47 121 61 212 5 31 11 38 39 48 18 6 44 22
56 35 13 14 27 22 30 18 3 -5 18 -25 33 -45z m-1673 -245 c0 -57 -21 -83 -65
-83 -29 0 -33 4 -39 33 -3 18 -1 48 5 65 10 29 14 32 55 32 l44 0 0 -47z
m1095 -153 c8 -12 -3 -50 -15 -50 -9 0 -20 47 -12 55 8 8 20 6 27 -5z m68 -74
c4 -10 -2 -16 -16 -18 -31 -4 -38 -58 -7 -58 11 0 23 7 26 15 4 8 12 15 20 15
8 0 14 -7 14 -15 0 -8 -7 -15 -15 -15 -8 0 -15 -4 -15 -10 0 -5 8 -10 18 -10
14 0 17 -7 14 -40 -3 -26 -9 -40 -18 -40 -21 0 -19 -76 2 -84 10 -4 14 -16 12
-38 -2 -28 -8 -34 -30 -36 -25 -3 -28 -7 -28 -43 0 -36 2 -39 29 -39 17 0 31
6 33 14 2 10 9 11 28 4 15 -6 20 -12 13 -15 -8 -3 -13 -22 -13 -44 0 -28 -4
-39 -15 -39 -11 0 -15 -11 -15 -40 l0 -40 40 0 c33 0 40 -3 40 -20 0 -11 4
-20 10 -20 22 0 45 -75 42 -137 -2 -51 0 -63 13 -63 10 0 15 10 15 28 1 24 2
25 11 9 6 -10 8 -25 5 -33 -3 -8 -1 -26 4 -40 6 -14 7 -36 4 -48 -5 -21 -10
-23 -55 -18 l-49 5 0 -32 c0 -17 -4 -31 -9 -31 -5 0 -12 -18 -16 -41 l-7 -41
-21 34 c-11 18 -22 28 -24 21 -4 -10 -10 -10 -25 -2 -11 6 -17 17 -14 25 9 23
-21 72 -75 125 -34 33 -49 56 -49 73 0 14 -4 26 -10 26 -5 0 -10 5 -10 10 0 6
16 10 35 10 34 0 35 1 35 40 0 30 4 40 16 40 10 0 0 13 -24 33 -51 40 -59 60
-36 95 10 15 19 34 21 42 1 8 8 25 15 39 10 19 10 25 1 28 -8 3 -13 21 -13 44
0 44 -11 48 -42 19 -30 -28 -38 -14 -29 50 8 54 9 54 10 13 1 -31 5 -43 16
-43 8 0 15 7 15 15 0 8 4 15 10 15 5 0 14 9 19 19 12 21 -4 81 -20 81 -5 0 -9
17 -9 38 1 34 2 36 15 18 14 -18 15 -18 25 8 5 15 10 32 10 37 0 5 7 9 16 9
12 0 14 5 9 18 -15 34 -17 62 -6 62 6 0 11 7 11 15 0 19 36 20 43 1z m981 -92
c12 -5 7 -12 -20 -31 -22 -14 -43 -21 -53 -17 -11 4 -12 8 -3 11 6 3 12 11 12
18 0 12 13 19 42 24 3 0 13 -2 22 -5z m-13 -124 c-13 -11 -28 -20 -35 -20 -6
1 0 10 13 20 13 11 28 20 35 20 6 -1 0 -10 -13 -20z m169 -575 c0 -2 -7 -29
-14 -60 -15 -57 -7 -110 18 -127 13 -9 22 -188 9 -188 -5 0 -20 -19 -33 -42
-13 -24 -29 -47 -37 -51 -7 -4 -13 -16 -13 -26 0 -10 -9 -21 -20 -24 -13 -3
-18 -11 -14 -20 12 -32 -77 4 -124 50 -12 11 -13 23 -11 96 1 16 -6 36 -15 46
-28 30 -22 90 15 169 32 68 37 74 97 103 34 17 62 35 62 40 0 5 8 9 19 9 10 0
24 7 31 15 12 14 30 20 30 10z m37 -277 c-3 -8 -6 -5 -6 6 -1 11 2 17 5 13 3
-3 4 -12 1 -19z m-981 -65 c-10 -10 -19 5 -10 18 6 11 8 11 12 0 2 -7 1 -15
-2 -18z m124 -136 c0 -8 -3 -17 -7 -20 -9 -9 -34 13 -27 24 8 14 34 11 34 -4z
m18574 -1187 c50 -16 73 -40 82 -84 3 -20 10 -36 14 -36 5 0 6 -28 3 -62 -3
-49 -2 -59 7 -45 13 21 36 22 43 3 3 -8 -3 -38 -14 -68 -12 -29 -23 -62 -27
-73 -3 -11 -14 -33 -23 -50 -10 -16 -21 -54 -25 -84 l-7 -55 -23 71 c-13 39
-28 111 -34 159 -11 87 -36 189 -51 209 -9 12 -69 175 -69 188 0 5 19 -6 43
-25 23 -19 59 -41 81 -48z m248 -100 c-2 -39 -8 -70 -13 -70 -5 0 -9 10 -9 23
-1 12 -7 40 -15 62 -13 36 -13 41 1 52 30 22 39 6 36 -67z"/>
<path d="M15082 19898 c2 -6 10 -14 16 -16 7 -2 10 2 6 12 -7 18 -28 22 -22 4z"/>
<path d="M16595 10310 c3 -5 8 -10 11 -10 2 0 4 5 4 10 0 6 -5 10 -11 10 -5 0
-7 -4 -4 -10z"/>
<path d="M16426 10175 c-4 -10 1 -15 14 -15 13 0 18 5 14 15 -4 8 -10 15 -14
15 -4 0 -10 -7 -14 -15z"/>
<path d="M16265 10170 c-3 -5 3 -10 15 -10 12 0 18 5 15 10 -3 6 -10 10 -15
10 -5 0 -12 -4 -15 -10z"/>
<path d="M16080 10090 c0 -5 5 -10 11 -10 5 0 7 5 4 10 -3 6 -8 10 -11 10 -2
0 -4 -4 -4 -10z"/>
<path d="M19224 10018 c-4 -6 -2 -14 4 -16 7 -2 12 -21 12 -43 0 -32 3 -39 20
-39 11 0 20 4 20 8 0 5 11 14 25 20 34 16 31 28 -9 42 -19 6 -37 17 -40 25 -7
18 -22 19 -32 3z"/>
<path d="M14692 9929 c-18 -5 -30 -14 -27 -19 8 -13 55 -13 55 0 0 6 17 10 38
10 27 0 33 3 22 10 -18 12 -44 11 -88 -1z"/>
<path d="M18320 9755 c0 -9 5 -15 11 -13 6 2 11 8 11 13 0 5 -5 11 -11 13 -6
2 -11 -4 -11 -13z"/>
<path d="M18185 9701 c-16 -4 -29 -12 -28 -19 2 -6 -13 -14 -32 -18 -20 -3
-49 -19 -66 -35 l-31 -29 26 0 c14 0 26 4 26 8 0 5 25 16 55 26 30 9 57 21 60
26 4 6 15 10 26 10 12 0 19 7 19 20 0 21 -6 22 -55 11z"/>
<path d="M17499 9693 c-1 -5 -1 -11 0 -16 1 -4 -12 -10 -29 -13 -16 -4 -35
-13 -42 -21 -10 -13 -5 -14 37 -7 27 4 55 13 63 20 7 8 21 15 30 15 9 1 22 2
27 4 6 1 18 3 28 3 9 1 17 7 17 12 0 12 -129 14 -131 3z"/>
<path d="M19120 9669 c0 -5 5 -7 10 -4 6 3 10 8 10 11 0 2 -4 4 -10 4 -5 0
-10 -5 -10 -11z"/>
<path d="M18826 9653 c-11 -11 -6 -23 9 -23 8 0 15 4 15 9 0 13 -16 22 -24 14z"/>
<path d="M17310 9598 c-19 -5 -39 -13 -45 -18 -5 -4 -24 -11 -42 -14 -17 -4
-48 -16 -69 -27 -21 -10 -46 -19 -56 -19 -9 0 -20 -4 -23 -10 -3 -5 -24 -14
-45 -20 -30 -8 -40 -16 -40 -32 0 -18 4 -20 39 -14 22 3 54 13 73 23 60 30 68
33 83 33 8 0 15 5 15 10 0 6 9 10 20 10 11 0 20 4 20 9 0 5 17 16 38 26 73 32
108 54 87 54 -11 -1 -36 -5 -55 -11z"/>
<path d="M17991 9574 c-12 -14 -11 -15 8 -12 12 1 22 7 22 13 1 16 -15 15 -30
-1z"/>
<path d="M16951 9424 c0 -11 3 -14 6 -6 3 7 2 16 -1 19 -3 4 -6 -2 -5 -13z"/>
<path d="M15040 9370 c0 -5 5 -10 11 -10 5 0 7 5 4 10 -3 6 -8 10 -11 10 -2 0
-4 -4 -4 -10z"/>
<path d="M18210 8945 c0 -8 7 -15 15 -15 8 0 15 7 15 15 0 8 -7 15 -15 15 -8
0 -15 -7 -15 -15z"/>
<path d="M18160 8896 c0 -8 9 -24 19 -37 19 -23 20 -23 27 -5 5 12 3 21 -4 24
-7 2 -12 10 -12 18 0 8 -7 14 -15 14 -8 0 -15 -6 -15 -14z"/>
<path d="M7195 7710 c-3 -6 -17 -7 -31 -4 -27 7 -32 -7 -9 -26 11 -9 15 -9 15
-1 0 22 20 0 29 -32 9 -30 9 -29 10 21 1 52 -2 61 -14 42z"/>
<path d="M6173 7672 c-31 -3 -61 -26 -46 -35 4 -2 30 3 57 13 51 17 46 28 -11
22z"/>
<path d="M6011 7484 c1 -21 5 -52 9 -69 5 -19 6 -6 3 35 -6 73 -14 94 -12 34z"/>
<path d="M6914 7505 c-3 -8 0 -21 8 -29 10 -9 18 -61 27 -162 7 -82 16 -185
22 -228 5 -44 9 -108 9 -143 0 -50 3 -63 16 -63 12 0 14 8 10 43 -3 23 -10
101 -16 172 -6 72 -15 174 -20 228 -6 54 -10 117 -10 141 0 31 -5 46 -16 50
-22 8 -24 8 -30 -9z"/>
<path d="M7337 7492 c-4 -18 -11 -31 -16 -28 -20 13 -20 -17 9 -328 11 -122
15 -140 31 -131 5 4 9 1 9 -6 0 -9 3 -10 10 -3 10 10 -13 406 -29 489 l-7 40
-7 -33z"/>
<path d="M6811 7494 c0 -11 3 -14 6 -6 3 7 2 16 -1 19 -3 4 -6 -2 -5 -13z"/>
<path d="M6556 7310 c7 -133 32 -392 39 -398 8 -9 5 75 -10 263 -17 206 -38
306 -29 135z"/>
<path d="M6032 7330 c0 -19 2 -27 5 -17 2 9 2 25 0 35 -3 9 -5 1 -5 -18z"/>
<path d="M6132 7285 c0 -16 2 -22 5 -12 2 9 2 23 0 30 -3 6 -5 -1 -5 -18z"/>
<path d="M6043 7240 c0 -25 2 -35 4 -22 2 12 2 32 0 45 -2 12 -4 2 -4 -23z"/>
<path d="M6142 7180 c0 -14 2 -19 5 -12 2 6 2 18 0 25 -3 6 -5 1 -5 -13z"/>
<path d="M6053 7080 c0 -25 2 -35 4 -22 2 12 2 32 0 45 -2 12 -4 2 -4 -23z"/>
<path d="M6142 7090 c0 -19 3 -57 8 -85 6 -40 7 -43 8 -15 0 19 -3 58 -8 85
-6 40 -7 43 -8 15z"/>
<path d="M6068 6870 c5 -92 12 -120 12 -49 0 24 3 55 5 69 5 21 4 22 -4 5 -7
-17 -10 -14 -13 20 -3 22 -3 2 0 -45z"/>
<path d="M7355 6730 c-3 -5 1 -10 9 -10 8 0 18 5 21 10 3 6 -1 10 -9 10 -8 0
-18 -4 -21 -10z"/>
<path d="M5911 6655 c0 -53 2 -66 10 -52 7 12 7 35 1 70 l-10 52 -1 -70z"/>
<path d="M6093 6595 c0 -27 2 -38 4 -22 2 15 2 37 0 50 -2 12 -4 0 -4 -28z"/>
<path d="M6233 6469 c-23 -23 -4 -38 35 -27 65 16 69 19 47 28 -29 12 -69 12
-82 -1z"/>
<path d="M6096 6432 c-4 -13 -5 -26 -2 -29 10 -11 18 4 14 29 l-4 23 -8 -23z"/>
<path d="M7950 6250 c0 -5 5 -10 11 -10 5 0 7 5 4 10 -3 6 -8 10 -11 10 -2 0
-4 -4 -4 -10z"/>
<path d="M8000 6245 c0 -16 16 -20 24 -6 3 5 -1 11 -9 15 -9 3 -15 0 -15 -9z"/>
<path d="M7673 6083 c-73 -4 -73 -4 -73 -33 0 -15 5 -30 12 -32 6 -2 13 -15
15 -29 11 -80 23 -88 47 -29 11 28 22 40 36 40 13 0 20 7 20 19 0 10 7 21 15
25 15 5 22 48 8 44 -5 -1 -41 -4 -80 -5z"/>
<path d="M8146 5944 c-18 -18 -18 -19 -2 -22 10 -2 20 -1 23 1 2 3 3 13 1 23
-3 16 -4 16 -22 -2z"/>
<path d="M8160 5824 c0 -8 5 -12 10 -9 6 3 10 10 10 16 0 5 -4 9 -10 9 -5 0
-10 -7 -10 -16z"/>
<path d="M6720 5784 c0 -8 5 -12 10 -9 6 3 10 10 10 16 0 5 -4 9 -10 9 -5 0
-10 -7 -10 -16z"/>
<path d="M7620 5752 c0 -5 7 -17 15 -28 14 -18 14 -18 15 9 0 17 -5 27 -15 27
-8 0 -15 -4 -15 -8z"/>
<path d="M7749 5424 c-9 -11 -9 -18 -2 -22 6 -4 13 -16 16 -27 2 -11 5 -1 6
23 1 47 -1 49 -20 26z"/>
<path d="M6991 3850 c-15 -8 -8 -40 8 -40 11 0 22 38 12 44 -4 3 -13 1 -20 -4z"/>
<path d="M7428 3363 c7 -3 16 -2 19 1 4 3 -2 6 -13 5 -11 0 -14 -3 -6 -6z"/>
<path d="M18135 30810 c-3 -5 -1 -10 4 -10 6 0 11 5 11 10 0 6 -2 10 -4 10 -3
0 -8 -4 -11 -10z"/>
<path d="M17600 30229 c0 -5 5 -7 10 -4 6 3 10 8 10 11 0 2 -4 4 -10 4 -5 0
-10 -5 -10 -11z"/>
<path d="M14560 29467 c0 -22 26 -51 34 -38 3 5 -3 20 -14 32 -17 21 -19 22
-20 6z"/>
</g>
</svg>
